<svg width="1280" height="1445" viewBox="0 0 1280 1445" fill="none" xmlns="http://www.w3.org/2000/svg">
<path d="M6.84 32V14.96H0.12V11H18.42V14.96H11.7V32H6.84ZM29.7846 32V28.85L29.4846 28.16V22.52C29.4846 21.52 29.1746 20.74 28.5546 20.18C27.9546 19.62 27.0246 19.34 25.7646 19.34C24.9046 19.34 24.0546 19.48 23.2146 19.76C22.3946 20.02 21.6946 20.38 21.1146 20.84L19.4346 17.57C20.3146 16.95 21.3746 16.47 22.6146 16.13C23.8546 15.79 25.1146 15.62 26.3946 15.62C28.8546 15.62 30.7646 16.2 32.1246 17.36C33.4846 18.52 34.1646 20.33 34.1646 22.79V32H29.7846ZM24.8646 32.24C23.6046 32.24 22.5246 32.03 21.6246 31.61C20.7246 31.17 20.0346 30.58 19.5546 29.84C19.0746 29.1 18.8346 28.27 18.8346 27.35C18.8346 26.39 19.0646 25.55 19.5246 24.83C20.0046 24.11 20.7546 23.55 21.7746 23.15C22.7946 22.73 24.1246 22.52 25.7646 22.52H30.0546V25.25H26.2746C25.1746 25.25 24.4146 25.43 23.9946 25.79C23.5946 26.15 23.3946 26.6 23.3946 27.14C23.3946 27.74 23.6246 28.22 24.0846 28.58C24.5646 28.92 25.2146 29.09 26.0346 29.09C26.8146 29.09 27.5146 28.91 28.1346 28.55C28.7546 28.17 29.2046 27.62 29.4846 26.9L30.2046 29.06C29.8646 30.1 29.2446 30.89 28.3446 31.43C27.4446 31.97 26.2846 32.24 24.8646 32.24ZM59.0702 15.62C60.3502 15.62 61.4802 15.88 62.4602 16.4C63.4602 16.9 64.2402 17.68 64.8002 18.74C65.3802 19.78 65.6702 21.12 65.6702 22.76V32H60.9902V23.48C60.9902 22.18 60.7202 21.22 60.1802 20.6C59.6402 19.98 58.8802 19.67 57.9002 19.67C57.2202 19.67 56.6102 19.83 56.0702 20.15C55.5302 20.45 55.1102 20.91 54.8102 21.53C54.5102 22.15 54.3602 22.94 54.3602 23.9V32H49.6802V23.48C49.6802 22.18 49.4102 21.22 48.8702 20.6C48.3502 19.98 47.6002 19.67 46.6202 19.67C45.9402 19.67 45.3302 19.83 44.7902 20.15C44.2502 20.45 43.8302 20.91 43.5302 21.53C43.2302 22.15 43.0802 22.94 43.0802 23.9V32H38.4002V15.86H42.8702V20.27L42.0302 18.98C42.5902 17.88 43.3802 17.05 44.4002 16.49C45.4402 15.91 46.6202 15.62 47.9402 15.62C49.4202 15.62 50.7102 16 51.8102 16.76C52.9302 17.5 53.6702 18.64 54.0302 20.18L52.3802 19.73C52.9202 18.47 53.7802 17.47 54.9602 16.73C56.1602 15.99 57.5302 15.62 59.0702 15.62ZM79.7651 32V28.85L79.4651 28.16V22.52C79.4651 21.52 79.1551 20.74 78.5351 20.18C77.9351 19.62 77.0051 19.34 75.7451 19.34C74.8851 19.34 74.0351 19.48 73.1951 19.76C72.3751 20.02 71.6751 20.38 71.0951 20.84L69.4151 17.57C70.2951 16.95 71.3551 16.47 72.5951 16.13C73.8351 15.79 75.0951 15.62 76.3751 15.62C78.8351 15.62 80.7451 16.2 82.1051 17.36C83.4651 18.52 84.1451 20.33 84.1451 22.79V32H79.7651ZM74.8451 32.24C73.5851 32.24 72.5051 32.03 71.6051 31.61C70.7051 31.17 70.0151 30.58 69.5351 29.84C69.0551 29.1 68.8151 28.27 68.8151 27.35C68.8151 26.39 69.0451 25.55 69.5051 24.83C69.9851 24.11 70.7351 23.55 71.7551 23.15C72.7751 22.73 74.1051 22.52 75.7451 22.52H80.0351V25.25H76.2551C75.1551 25.25 74.3951 25.43 73.9751 25.79C73.5751 26.15 73.3751 26.6 73.3751 27.14C73.3751 27.74 73.6051 28.22 74.0651 28.58C74.5451 28.92 75.1951 29.09 76.0151 29.09C76.7951 29.09 77.4951 28.91 78.1151 28.55C78.7351 28.17 79.1851 27.62 79.4651 26.9L80.1851 29.06C79.8451 30.1 79.2251 30.89 78.3251 31.43C77.4251 31.97 76.2651 32.24 74.8451 32.24ZM98.1907 15.62C99.4707 15.62 100.611 15.88 101.611 16.4C102.631 16.9 103.431 17.68 104.011 18.74C104.591 19.78 104.881 21.12 104.881 22.76V32H100.201V23.48C100.201 22.18 99.9107 21.22 99.3307 20.6C98.7707 19.98 97.9707 19.67 96.9307 19.67C96.1907 19.67 95.5207 19.83 94.9207 20.15C94.3407 20.45 93.8807 20.92 93.5407 21.56C93.2207 22.2 93.0607 23.02 93.0607 24.02V32H88.3807V15.86H92.8507V20.33L92.0107 18.98C92.5907 17.9 93.4207 17.07 94.5007 16.49C95.5807 15.91 96.8107 15.62 98.1907 15.62ZM118.933 15.62C120.213 15.62 121.353 15.88 122.353 16.4C123.373 16.9 124.173 17.68 124.753 18.74C125.333 19.78 125.623 21.12 125.623 22.76V32H120.943V23.48C120.943 22.18 120.653 21.22 120.073 20.6C119.513 19.98 118.713 19.67 117.673 19.67C116.933 19.67 116.263 19.83 115.663 20.15C115.083 20.45 114.623 20.92 114.283 21.56C113.963 22.2 113.803 23.02 113.803 24.02V32H109.123V9.74H113.803V20.33L112.753 18.98C113.333 17.9 114.163 17.07 115.243 16.49C116.323 15.91 117.553 15.62 118.933 15.62ZM137.662 32.24C135.942 32.24 134.412 31.88 133.072 31.16C131.752 30.44 130.702 29.46 129.922 28.22C129.162 26.96 128.782 25.53 128.782 23.93C128.782 22.31 129.162 20.88 129.922 19.64C130.702 18.38 131.752 17.4 133.072 16.7C134.412 15.98 135.942 15.62 137.662 15.62C139.362 15.62 140.882 15.98 142.222 16.7C143.562 17.4 144.612 18.37 145.372 19.61C146.132 20.85 146.512 22.29 146.512 23.93C146.512 25.53 146.132 26.96 145.372 28.22C144.612 29.46 143.562 30.44 142.222 31.16C140.882 31.88 139.362 32.24 137.662 32.24ZM137.662 28.4C138.442 28.4 139.142 28.22 139.762 27.86C140.382 27.5 140.872 26.99 141.232 26.33C141.592 25.65 141.772 24.85 141.772 23.93C141.772 22.99 141.592 22.19 141.232 21.53C140.872 20.87 140.382 20.36 139.762 20C139.142 19.64 138.442 19.46 137.662 19.46C136.882 19.46 136.182 19.64 135.562 20C134.942 20.36 134.442 20.87 134.062 21.53C133.702 22.19 133.522 22.99 133.522 23.93C133.522 24.85 133.702 25.65 134.062 26.33C134.442 26.99 134.942 27.5 135.562 27.86C136.182 28.22 136.882 28.4 137.662 28.4ZM155.07 32.24C153.69 32.24 152.36 32.08 151.08 31.76C149.82 31.42 148.82 31 148.08 30.5L149.64 27.14C150.38 27.6 151.25 27.98 152.25 28.28C153.27 28.56 154.27 28.7 155.25 28.7C156.33 28.7 157.09 28.57 157.53 28.31C157.99 28.05 158.22 27.69 158.22 27.23C158.22 26.85 158.04 26.57 157.68 26.39C157.34 26.19 156.88 26.04 156.3 25.94C155.72 25.84 155.08 25.74 154.38 25.64C153.7 25.54 153.01 25.41 152.31 25.25C151.61 25.07 150.97 24.81 150.39 24.47C149.81 24.13 149.34 23.67 148.98 23.09C148.64 22.51 148.47 21.76 148.47 20.84C148.47 19.82 148.76 18.92 149.34 18.14C149.94 17.36 150.8 16.75 151.92 16.31C153.04 15.85 154.38 15.62 155.94 15.62C157.04 15.62 158.16 15.74 159.3 15.98C160.44 16.22 161.39 16.57 162.15 17.03L160.59 20.36C159.81 19.9 159.02 19.59 158.22 19.43C157.44 19.25 156.68 19.16 155.94 19.16C154.9 19.16 154.14 19.3 153.66 19.58C153.18 19.86 152.94 20.22 152.94 20.66C152.94 21.06 153.11 21.36 153.45 21.56C153.81 21.76 154.28 21.92 154.86 22.04C155.44 22.16 156.07 22.27 156.75 22.37C157.45 22.45 158.15 22.58 158.85 22.76C159.55 22.94 160.18 23.2 160.74 23.54C161.32 23.86 161.79 24.31 162.15 24.89C162.51 25.45 162.69 26.19 162.69 27.11C162.69 28.11 162.39 29 161.79 29.78C161.19 30.54 160.32 31.14 159.18 31.58C158.06 32.02 156.69 32.24 155.07 32.24ZM182.084 32.24C180.244 32.24 178.624 31.88 177.224 31.16C175.844 30.44 174.774 29.46 174.014 28.22C173.254 26.96 172.874 25.53 172.874 23.93C172.874 22.31 173.244 20.88 173.984 19.64C174.744 18.38 175.774 17.4 177.074 16.7C178.374 15.98 179.844 15.62 181.484 15.62C183.064 15.62 184.484 15.96 185.744 16.64C187.024 17.3 188.034 18.26 188.774 19.52C189.514 20.76 189.884 22.25 189.884 23.99C189.884 24.17 189.874 24.38 189.854 24.62C189.834 24.84 189.814 25.05 189.794 25.25H176.684V22.52H187.334L185.534 23.33C185.534 22.49 185.364 21.76 185.024 21.14C184.684 20.52 184.214 20.04 183.614 19.7C183.014 19.34 182.314 19.16 181.514 19.16C180.714 19.16 180.004 19.34 179.384 19.7C178.784 20.04 178.314 20.53 177.974 21.17C177.634 21.79 177.464 22.53 177.464 23.39V24.11C177.464 24.99 177.654 25.77 178.034 26.45C178.434 27.11 178.984 27.62 179.684 27.98C180.404 28.32 181.244 28.49 182.204 28.49C183.064 28.49 183.814 28.36 184.454 28.1C185.114 27.84 185.714 27.45 186.254 26.93L188.744 29.63C188.004 30.47 187.074 31.12 185.954 31.58C184.834 32.02 183.544 32.24 182.084 32.24ZM209.506 32.24C207.666 32.24 206.046 31.88 204.646 31.16C203.266 30.44 202.196 29.46 201.436 28.22C200.676 26.96 200.296 25.53 200.296 23.93C200.296 22.31 200.666 20.88 201.406 19.64C202.166 18.38 203.196 17.4 204.496 16.7C205.796 15.98 207.266 15.62 208.906 15.62C210.486 15.62 211.906 15.96 213.166 16.64C214.446 17.3 215.456 18.26 216.196 19.52C216.936 20.76 217.306 22.25 217.306 23.99C217.306 24.17 217.296 24.38 217.276 24.62C217.256 24.84 217.236 25.05 217.216 25.25H204.106V22.52H214.756L212.956 23.33C212.956 22.49 212.786 21.76 212.446 21.14C212.106 20.52 211.636 20.04 211.036 19.7C210.436 19.34 209.736 19.16 208.936 19.16C208.136 19.16 207.426 19.34 206.806 19.7C206.206 20.04 205.736 20.53 205.396 21.17C205.056 21.79 204.886 22.53 204.886 23.39V24.11C204.886 24.99 205.076 25.77 205.456 26.45C205.856 27.11 206.406 27.62 207.106 27.98C207.826 28.32 208.666 28.49 209.626 28.49C210.486 28.49 211.236 28.36 211.876 28.1C212.536 27.84 213.136 27.45 213.676 26.93L216.166 29.63C215.426 30.47 214.496 31.12 213.376 31.58C212.256 32.02 210.966 32.24 209.506 32.24ZM225.852 32.24C224.472 32.24 223.142 32.08 221.862 31.76C220.602 31.42 219.602 31 218.862 30.5L220.422 27.14C221.162 27.6 222.032 27.98 223.032 28.28C224.052 28.56 225.052 28.7 226.032 28.7C227.112 28.7 227.872 28.57 228.312 28.31C228.772 28.05 229.002 27.69 229.002 27.23C229.002 26.85 228.822 26.57 228.462 26.39C228.122 26.19 227.662 26.04 227.082 25.94C226.502 25.84 225.862 25.74 225.162 25.64C224.482 25.54 223.792 25.41 223.092 25.25C222.392 25.07 221.752 24.81 221.172 24.47C220.592 24.13 220.122 23.67 219.762 23.09C219.422 22.51 219.252 21.76 219.252 20.84C219.252 19.82 219.542 18.92 220.122 18.14C220.722 17.36 221.582 16.75 222.702 16.31C223.822 15.85 225.162 15.62 226.722 15.62C227.822 15.62 228.942 15.74 230.082 15.98C231.222 16.22 232.172 16.57 232.932 17.03L231.372 20.36C230.592 19.9 229.802 19.59 229.002 19.43C228.222 19.25 227.462 19.16 226.722 19.16C225.682 19.16 224.922 19.3 224.442 19.58C223.962 19.86 223.722 20.22 223.722 20.66C223.722 21.06 223.892 21.36 224.232 21.56C224.592 21.76 225.062 21.92 225.642 22.04C226.222 22.16 226.852 22.27 227.532 22.37C228.232 22.45 228.932 22.58 229.632 22.76C230.332 22.94 230.962 23.2 231.522 23.54C232.102 23.86 232.572 24.31 232.932 24.89C233.292 25.45 233.472 26.19 233.472 27.11C233.472 28.11 233.172 29 232.572 29.78C231.972 30.54 231.102 31.14 229.962 31.58C228.842 32.02 227.472 32.24 225.852 32.24ZM245.899 32.24C244.539 32.24 243.349 31.94 242.329 31.34C241.309 30.74 240.509 29.83 239.929 28.61C239.369 27.37 239.089 25.81 239.089 23.93C239.089 22.03 239.359 20.47 239.899 19.25C240.439 18.03 241.219 17.12 242.239 16.52C243.259 15.92 244.479 15.62 245.899 15.62C247.419 15.62 248.779 15.97 249.979 16.67C251.199 17.35 252.159 18.31 252.859 19.55C253.579 20.79 253.939 22.25 253.939 23.93C253.939 25.63 253.579 27.1 252.859 28.34C252.159 29.58 251.199 30.54 249.979 31.22C248.779 31.9 247.419 32.24 245.899 32.24ZM236.359 37.82V15.86H240.829V19.16L240.739 23.96L241.039 28.73V37.82H236.359ZM245.089 28.4C245.869 28.4 246.559 28.22 247.159 27.86C247.779 27.5 248.269 26.99 248.629 26.33C249.009 25.65 249.199 24.85 249.199 23.93C249.199 22.99 249.009 22.19 248.629 21.53C248.269 20.87 247.779 20.36 247.159 20C246.559 19.64 245.869 19.46 245.089 19.46C244.309 19.46 243.609 19.64 242.989 20C242.369 20.36 241.879 20.87 241.519 21.53C241.159 22.19 240.979 22.99 240.979 23.93C240.979 24.85 241.159 25.65 241.519 26.33C241.879 26.99 242.369 27.5 242.989 27.86C243.609 28.22 244.309 28.4 245.089 28.4ZM266.708 32V28.85L266.408 28.16V22.52C266.408 21.52 266.098 20.74 265.478 20.18C264.878 19.62 263.948 19.34 262.688 19.34C261.828 19.34 260.978 19.48 260.138 19.76C259.318 20.02 258.618 20.38 258.038 20.84L256.358 17.57C257.238 16.95 258.298 16.47 259.538 16.13C260.778 15.79 262.038 15.62 263.318 15.62C265.778 15.62 267.688 16.2 269.048 17.36C270.408 18.52 271.088 20.33 271.088 22.79V32H266.708ZM261.788 32.24C260.528 32.24 259.448 32.03 258.548 31.61C257.648 31.17 256.958 30.58 256.478 29.84C255.998 29.1 255.758 28.27 255.758 27.35C255.758 26.39 255.988 25.55 256.448 24.83C256.928 24.11 257.678 23.55 258.698 23.15C259.718 22.73 261.048 22.52 262.688 22.52H266.978V25.25H263.198C262.098 25.25 261.338 25.43 260.918 25.79C260.518 26.15 260.318 26.6 260.318 27.14C260.318 27.74 260.548 28.22 261.008 28.58C261.488 28.92 262.138 29.09 262.958 29.09C263.738 29.09 264.438 28.91 265.058 28.55C265.678 28.17 266.128 27.62 266.408 26.9L267.128 29.06C266.788 30.1 266.168 30.89 265.268 31.43C264.368 31.97 263.208 32.24 261.788 32.24ZM283.241 32.24C281.501 32.24 279.951 31.89 278.591 31.19C277.231 30.47 276.161 29.48 275.381 28.22C274.621 26.96 274.241 25.53 274.241 23.93C274.241 22.31 274.621 20.88 275.381 19.64C276.161 18.38 277.231 17.4 278.591 16.7C279.951 15.98 281.501 15.62 283.241 15.62C284.941 15.62 286.421 15.98 287.681 16.7C288.941 17.4 289.871 18.41 290.471 19.73L286.841 21.68C286.421 20.92 285.891 20.36 285.251 20C284.631 19.64 283.951 19.46 283.211 19.46C282.411 19.46 281.691 19.64 281.051 20C280.411 20.36 279.901 20.87 279.521 21.53C279.161 22.19 278.981 22.99 278.981 23.93C278.981 24.87 279.161 25.67 279.521 26.33C279.901 26.99 280.411 27.5 281.051 27.86C281.691 28.22 282.411 28.4 283.211 28.4C283.951 28.4 284.631 28.23 285.251 27.89C285.891 27.53 286.421 26.96 286.841 26.18L290.471 28.16C289.871 29.46 288.941 30.47 287.681 31.19C286.421 31.89 284.941 32.24 283.241 32.24ZM281.531 38.96C281.011 38.96 280.501 38.9 280.001 38.78C279.521 38.66 279.101 38.51 278.741 38.33L279.461 36.32C279.761 36.46 280.071 36.57 280.391 36.65C280.711 36.73 281.051 36.77 281.411 36.77C281.971 36.77 282.371 36.68 282.611 36.5C282.851 36.32 282.971 36.09 282.971 35.81C282.971 35.55 282.851 35.34 282.611 35.18C282.391 35.02 282.021 34.94 281.501 34.94H280.481L281.261 31.76H283.751L283.331 33.5C284.231 33.6 284.891 33.88 285.311 34.34C285.731 34.82 285.941 35.37 285.941 35.99C285.941 36.89 285.541 37.61 284.741 38.15C283.941 38.69 282.871 38.96 281.531 38.96ZM300.641 32.24C298.921 32.24 297.391 31.88 296.051 31.16C294.731 30.44 293.681 29.46 292.901 28.22C292.141 26.96 291.761 25.53 291.761 23.93C291.761 22.31 292.141 20.88 292.901 19.64C293.681 18.38 294.731 17.4 296.051 16.7C297.391 15.98 298.921 15.62 300.641 15.62C302.341 15.62 303.861 15.98 305.201 16.7C306.541 17.4 307.591 18.37 308.351 19.61C309.111 20.85 309.491 22.29 309.491 23.93C309.491 25.53 309.111 26.96 308.351 28.22C307.591 29.46 306.541 30.44 305.201 31.16C303.861 31.88 302.341 32.24 300.641 32.24ZM300.641 28.4C301.421 28.4 302.121 28.22 302.741 27.86C303.361 27.5 303.851 26.99 304.211 26.33C304.571 25.65 304.751 24.85 304.751 23.93C304.751 22.99 304.571 22.19 304.211 21.53C303.851 20.87 303.361 20.36 302.741 20C302.121 19.64 301.421 19.46 300.641 19.46C299.861 19.46 299.161 19.64 298.541 20C297.921 20.36 297.421 20.87 297.041 21.53C296.681 22.19 296.501 22.99 296.501 23.93C296.501 24.85 296.681 25.65 297.041 26.33C297.421 26.99 297.921 27.5 298.541 27.86C299.161 28.22 299.861 28.4 300.641 28.4ZM318.049 32.24C316.669 32.24 315.339 32.08 314.059 31.76C312.799 31.42 311.799 31 311.059 30.5L312.619 27.14C313.359 27.6 314.229 27.98 315.229 28.28C316.249 28.56 317.249 28.7 318.229 28.7C319.309 28.7 320.069 28.57 320.509 28.31C320.969 28.05 321.199 27.69 321.199 27.23C321.199 26.85 321.019 26.57 320.659 26.39C320.319 26.19 319.859 26.04 319.279 25.94C318.699 25.84 318.059 25.74 317.359 25.64C316.679 25.54 315.989 25.41 315.289 25.25C314.589 25.07 313.949 24.81 313.369 24.47C312.789 24.13 312.319 23.67 311.959 23.09C311.619 22.51 311.449 21.76 311.449 20.84C311.449 19.82 311.739 18.92 312.319 18.14C312.919 17.36 313.779 16.75 314.899 16.31C316.019 15.85 317.359 15.62 318.919 15.62C320.019 15.62 321.139 15.74 322.279 15.98C323.419 16.22 324.369 16.57 325.129 17.03L323.569 20.36C322.789 19.9 321.999 19.59 321.199 19.43C320.419 19.25 319.659 19.16 318.919 19.16C317.879 19.16 317.119 19.3 316.639 19.58C316.159 19.86 315.919 20.22 315.919 20.66C315.919 21.06 316.089 21.36 316.429 21.56C316.789 21.76 317.259 21.92 317.839 22.04C318.419 22.16 319.049 22.27 319.729 22.37C320.429 22.45 321.129 22.58 321.829 22.76C322.529 22.94 323.159 23.2 323.719 23.54C324.299 23.86 324.769 24.31 325.129 24.89C325.489 25.45 325.669 26.19 325.669 27.11C325.669 28.11 325.369 29 324.769 29.78C324.169 30.54 323.299 31.14 322.159 31.58C321.039 32.02 319.669 32.24 318.049 32.24Z" fill="#232735"/>
<path d="M7.92 64.12C6.13333 64.12 4.72667 63.6067 3.7 62.58C2.67333 61.5533 2.16 60.0333 2.16 58.02V50H3.64V57.96C3.64 59.6133 4.01333 60.8333 4.76 61.62C5.50667 62.4067 6.56 62.8 7.92 62.8C9.29333 62.8 10.3533 62.4067 11.1 61.62C11.8467 60.8333 12.22 59.6133 12.22 57.96V50H13.66V58.02C13.66 60.0333 13.1467 61.5533 12.12 62.58C11.1067 63.6067 9.70667 64.12 7.92 64.12ZM20.6398 64.1C19.7732 64.1 18.9532 63.98 18.1798 63.74C17.4065 63.4867 16.7998 63.1733 16.3598 62.8L16.9998 61.68C17.4265 62 17.9732 62.28 18.6398 62.52C19.3065 62.7467 20.0065 62.86 20.7398 62.86C21.7398 62.86 22.4598 62.7067 22.8998 62.4C23.3398 62.08 23.5598 61.66 23.5598 61.14C23.5598 60.7533 23.4332 60.4533 23.1798 60.24C22.9398 60.0133 22.6198 59.8467 22.2198 59.74C21.8198 59.62 21.3732 59.52 20.8798 59.44C20.3865 59.36 19.8932 59.2667 19.3998 59.16C18.9198 59.0533 18.4798 58.9 18.0798 58.7C17.6798 58.4867 17.3532 58.2 17.0998 57.84C16.8598 57.48 16.7398 57 16.7398 56.4C16.7398 55.8267 16.8998 55.3133 17.2198 54.86C17.5398 54.4067 18.0065 54.0533 18.6198 53.8C19.2465 53.5333 20.0065 53.4 20.8998 53.4C21.5798 53.4 22.2598 53.4933 22.9398 53.68C23.6198 53.8533 24.1798 54.0867 24.6198 54.38L23.9998 55.52C23.5332 55.2 23.0332 54.9733 22.4998 54.84C21.9665 54.6933 21.4332 54.62 20.8998 54.62C19.9532 54.62 19.2532 54.7867 18.7998 55.12C18.3598 55.44 18.1398 55.8533 18.1398 56.36C18.1398 56.76 18.2598 57.0733 18.4998 57.3C18.7532 57.5267 19.0798 57.7067 19.4798 57.84C19.8932 57.96 20.3398 58.06 20.8198 58.14C21.3132 58.22 21.7998 58.32 22.2798 58.44C22.7732 58.5467 23.2198 58.7 23.6198 58.9C24.0332 59.0867 24.3598 59.36 24.5998 59.72C24.8532 60.0667 24.9798 60.5267 24.9798 61.1C24.9798 61.7133 24.8065 62.2467 24.4598 62.7C24.1265 63.14 23.6332 63.4867 22.9798 63.74C22.3398 63.98 21.5598 64.1 20.6398 64.1ZM32.0455 64.1C30.9521 64.1 29.9921 63.8733 29.1655 63.42C28.3388 62.9533 27.6921 62.32 27.2255 61.52C26.7588 60.7067 26.5255 59.78 26.5255 58.74C26.5255 57.7 26.7455 56.78 27.1855 55.98C27.6388 55.18 28.2521 54.5533 29.0255 54.1C29.8121 53.6333 30.6921 53.4 31.6655 53.4C32.6521 53.4 33.5255 53.6267 34.2855 54.08C35.0588 54.52 35.6655 55.1467 36.1055 55.96C36.5455 56.76 36.7655 57.6867 36.7655 58.74C36.7655 58.8067 36.7588 58.88 36.7455 58.96C36.7455 59.0267 36.7455 59.1 36.7455 59.18H27.6055V58.12H35.9855L35.4255 58.54C35.4255 57.78 35.2588 57.1067 34.9255 56.52C34.6055 55.92 34.1655 55.4533 33.6055 55.12C33.0455 54.7867 32.3988 54.62 31.6655 54.62C30.9455 54.62 30.2988 54.7867 29.7255 55.12C29.1521 55.4533 28.7055 55.92 28.3855 56.52C28.0655 57.12 27.9055 57.8067 27.9055 58.58V58.8C27.9055 59.6 28.0788 60.3067 28.4255 60.92C28.7855 61.52 29.2788 61.9933 29.9055 62.34C30.5455 62.6733 31.2721 62.84 32.0855 62.84C32.7255 62.84 33.3188 62.7267 33.8655 62.5C34.4255 62.2733 34.9055 61.9267 35.3055 61.46L36.1055 62.38C35.6388 62.94 35.0521 63.3667 34.3455 63.66C33.6521 63.9533 32.8855 64.1 32.0455 64.1ZM47.7102 64.1C46.8435 64.1 46.0235 63.98 45.2502 63.74C44.4768 63.4867 43.8702 63.1733 43.4302 62.8L44.0702 61.68C44.4968 62 45.0435 62.28 45.7102 62.52C46.3768 62.7467 47.0768 62.86 47.8102 62.86C48.8102 62.86 49.5302 62.7067 49.9702 62.4C50.4102 62.08 50.6302 61.66 50.6302 61.14C50.6302 60.7533 50.5035 60.4533 50.2502 60.24C50.0102 60.0133 49.6902 59.8467 49.2902 59.74C48.8902 59.62 48.4435 59.52 47.9502 59.44C47.4568 59.36 46.9635 59.2667 46.4702 59.16C45.9902 59.0533 45.5502 58.9 45.1502 58.7C44.7502 58.4867 44.4235 58.2 44.1702 57.84C43.9302 57.48 43.8102 57 43.8102 56.4C43.8102 55.8267 43.9702 55.3133 44.2902 54.86C44.6102 54.4067 45.0768 54.0533 45.6902 53.8C46.3168 53.5333 47.0768 53.4 47.9702 53.4C48.6502 53.4 49.3302 53.4933 50.0102 53.68C50.6902 53.8533 51.2502 54.0867 51.6902 54.38L51.0702 55.52C50.6035 55.2 50.1035 54.9733 49.5702 54.84C49.0368 54.6933 48.5035 54.62 47.9702 54.62C47.0235 54.62 46.3235 54.7867 45.8702 55.12C45.4302 55.44 45.2102 55.8533 45.2102 56.36C45.2102 56.76 45.3302 57.0733 45.5702 57.3C45.8235 57.5267 46.1502 57.7067 46.5502 57.84C46.9635 57.96 47.4102 58.06 47.8902 58.14C48.3835 58.22 48.8702 58.32 49.3502 58.44C49.8435 58.5467 50.2902 58.7 50.6902 58.9C51.1035 59.0867 51.4302 59.36 51.6702 59.72C51.9235 60.0667 52.0502 60.5267 52.0502 61.1C52.0502 61.7133 51.8768 62.2467 51.5302 62.7C51.1968 63.14 50.7035 63.4867 50.0502 63.74C49.4102 63.98 48.6302 64.1 47.7102 64.1ZM59.1158 64.1C58.0224 64.1 57.0624 63.8733 56.2358 63.42C55.4091 62.9533 54.7624 62.32 54.2958 61.52C53.8291 60.7067 53.5958 59.78 53.5958 58.74C53.5958 57.7 53.8158 56.78 54.2558 55.98C54.7091 55.18 55.3224 54.5533 56.0958 54.1C56.8824 53.6333 57.7624 53.4 58.7358 53.4C59.7224 53.4 60.5958 53.6267 61.3558 54.08C62.1291 54.52 62.7358 55.1467 63.1758 55.96C63.6158 56.76 63.8358 57.6867 63.8358 58.74C63.8358 58.8067 63.8291 58.88 63.8158 58.96C63.8158 59.0267 63.8158 59.1 63.8158 59.18H54.6758V58.12H63.0558L62.4958 58.54C62.4958 57.78 62.3291 57.1067 61.9958 56.52C61.6758 55.92 61.2358 55.4533 60.6758 55.12C60.1158 54.7867 59.4691 54.62 58.7358 54.62C58.0158 54.62 57.3691 54.7867 56.7958 55.12C56.2224 55.4533 55.7758 55.92 55.4558 56.52C55.1358 57.12 54.9758 57.8067 54.9758 58.58V58.8C54.9758 59.6 55.1491 60.3067 55.4958 60.92C55.8558 61.52 56.3491 61.9933 56.9758 62.34C57.6158 62.6733 58.3424 62.84 59.1558 62.84C59.7958 62.84 60.3891 62.7267 60.9358 62.5C61.4958 62.2733 61.9758 61.9267 62.3758 61.46L63.1758 62.38C62.7091 62.94 62.1224 63.3667 61.4158 63.66C60.7224 63.9533 59.9558 64.1 59.1158 64.1ZM79.8461 53.4C80.6994 53.4 81.4394 53.5667 82.0661 53.9C82.7061 54.22 83.1994 54.7133 83.5461 55.38C83.9061 56.0467 84.0861 56.8867 84.0861 57.9V64H82.6661V58.04C82.6661 56.9333 82.3994 56.1 81.8661 55.54C81.3461 54.9667 80.6061 54.68 79.6461 54.68C78.9261 54.68 78.2994 54.8333 77.7661 55.14C77.2461 55.4333 76.8394 55.8667 76.5461 56.44C76.2661 57 76.1261 57.68 76.1261 58.48V64H74.7061V58.04C74.7061 56.9333 74.4394 56.1 73.9061 55.54C73.3728 54.9667 72.6261 54.68 71.6661 54.68C70.9594 54.68 70.3394 54.8333 69.8061 55.14C69.2728 55.4333 68.8594 55.8667 68.5661 56.44C68.2861 57 68.1461 57.68 68.1461 58.48V64H66.7261V53.5H68.0861V56.34L67.8661 55.84C68.1861 55.08 68.6994 54.4867 69.4061 54.06C70.1261 53.62 70.9728 53.4 71.9461 53.4C72.9728 53.4 73.8461 53.66 74.5661 54.18C75.2861 54.6867 75.7528 55.4533 75.9661 56.48L75.4061 56.26C75.7128 55.4067 76.2528 54.72 77.0261 54.2C77.8128 53.6667 78.7528 53.4 79.8461 53.4ZM93.357 64.1C92.4504 64.1 91.6304 63.8933 90.897 63.48C90.1637 63.0533 89.577 62.4467 89.137 61.66C88.7104 60.86 88.497 59.8867 88.497 58.74C88.497 57.5933 88.7104 56.6267 89.137 55.84C89.5637 55.04 90.1437 54.4333 90.877 54.02C91.6104 53.6067 92.437 53.4 93.357 53.4C94.357 53.4 95.2504 53.6267 96.037 54.08C96.837 54.52 97.4637 55.1467 97.917 55.96C98.3704 56.76 98.597 57.6867 98.597 58.74C98.597 59.8067 98.3704 60.74 97.917 61.54C97.4637 62.34 96.837 62.9667 96.037 63.42C95.2504 63.8733 94.357 64.1 93.357 64.1ZM87.937 67.88V53.5H89.297V56.66L89.157 58.76L89.357 60.88V67.88H87.937ZM93.257 62.84C94.0037 62.84 94.6704 62.6733 95.257 62.34C95.8437 61.9933 96.3104 61.5133 96.657 60.9C97.0037 60.2733 97.177 59.5533 97.177 58.74C97.177 57.9267 97.0037 57.2133 96.657 56.6C96.3104 55.9867 95.8437 55.5067 95.257 55.16C94.6704 54.8133 94.0037 54.64 93.257 54.64C92.5104 54.64 91.837 54.8133 91.237 55.16C90.6504 55.5067 90.1837 55.9867 89.837 56.6C89.5037 57.2133 89.337 57.9267 89.337 58.74C89.337 59.5533 89.5037 60.2733 89.837 60.9C90.1837 61.5133 90.6504 61.9933 91.237 62.34C91.837 62.6733 92.5104 62.84 93.257 62.84ZM101.492 64V53.5H102.852V56.36L102.712 55.86C103.005 55.06 103.498 54.4533 104.192 54.04C104.885 53.6133 105.745 53.4 106.772 53.4V54.78C106.718 54.78 106.665 54.78 106.612 54.78C106.558 54.7667 106.505 54.76 106.452 54.76C105.345 54.76 104.478 55.1 103.852 55.78C103.225 56.4467 102.912 57.4 102.912 58.64V64H101.492ZM113.725 64.1C112.632 64.1 111.672 63.8733 110.845 63.42C110.018 62.9533 109.372 62.32 108.905 61.52C108.438 60.7067 108.205 59.78 108.205 58.74C108.205 57.7 108.425 56.78 108.865 55.98C109.318 55.18 109.932 54.5533 110.705 54.1C111.492 53.6333 112.372 53.4 113.345 53.4C114.332 53.4 115.205 53.6267 115.965 54.08C116.738 54.52 117.345 55.1467 117.785 55.96C118.225 56.76 118.445 57.6867 118.445 58.74C118.445 58.8067 118.438 58.88 118.425 58.96C118.425 59.0267 118.425 59.1 118.425 59.18H109.285V58.12H117.665L117.105 58.54C117.105 57.78 116.938 57.1067 116.605 56.52C116.285 55.92 115.845 55.4533 115.285 55.12C114.725 54.7867 114.078 54.62 113.345 54.62C112.625 54.62 111.978 54.7867 111.405 55.12C110.832 55.4533 110.385 55.92 110.065 56.52C109.745 57.12 109.585 57.8067 109.585 58.58V58.8C109.585 59.6 109.758 60.3067 110.105 60.92C110.465 61.52 110.958 61.9933 111.585 62.34C112.225 62.6733 112.952 62.84 113.765 62.84C114.405 62.84 114.998 62.7267 115.545 62.5C116.105 62.2733 116.585 61.9267 116.985 61.46L117.785 62.38C117.318 62.94 116.732 63.3667 116.025 63.66C115.332 63.9533 114.565 64.1 113.725 64.1ZM139.69 53.4C140.543 53.4 141.283 53.5667 141.91 53.9C142.55 54.22 143.043 54.7133 143.39 55.38C143.75 56.0467 143.93 56.8867 143.93 57.9V64H142.51V58.04C142.51 56.9333 142.243 56.1 141.71 55.54C141.19 54.9667 140.45 54.68 139.49 54.68C138.77 54.68 138.143 54.8333 137.61 55.14C137.09 55.4333 136.683 55.8667 136.39 56.44C136.11 57 135.97 57.68 135.97 58.48V64H134.55V58.04C134.55 56.9333 134.283 56.1 133.75 55.54C133.217 54.9667 132.47 54.68 131.51 54.68C130.803 54.68 130.183 54.8333 129.65 55.14C129.117 55.4333 128.703 55.8667 128.41 56.44C128.13 57 127.99 57.68 127.99 58.48V64H126.57V53.5H127.93V56.34L127.71 55.84C128.03 55.08 128.543 54.4867 129.25 54.06C129.97 53.62 130.817 53.4 131.79 53.4C132.817 53.4 133.69 53.66 134.41 54.18C135.13 54.6867 135.597 55.4533 135.81 56.48L135.25 56.26C135.557 55.4067 136.097 54.72 136.87 54.2C137.657 53.6667 138.597 53.4 139.69 53.4ZM152.121 64.1C151.227 64.1 150.447 63.9333 149.781 63.6C149.114 63.2667 148.594 62.7667 148.221 62.1C147.861 61.4333 147.681 60.6 147.681 59.6V53.5H149.101V59.44C149.101 60.56 149.374 61.4067 149.921 61.98C150.481 62.54 151.261 62.82 152.261 62.82C152.994 62.82 153.627 62.6733 154.161 62.38C154.707 62.0733 155.121 61.6333 155.401 61.06C155.694 60.4867 155.841 59.8 155.841 59V53.5H157.261V64H155.901V61.12L156.121 61.64C155.787 62.4133 155.267 63.02 154.561 63.46C153.867 63.8867 153.054 64.1 152.121 64.1ZM151.181 51.86L153.921 49.38H155.821L152.581 51.86H151.181ZM161.218 64V49.16H162.638V64H161.218ZM169.968 64.1C168.981 64.1 168.221 63.8333 167.688 63.3C167.155 62.7667 166.888 62.0133 166.888 61.04V51.18H168.308V60.96C168.308 61.5733 168.461 62.0467 168.768 62.38C169.088 62.7133 169.541 62.88 170.128 62.88C170.755 62.88 171.275 62.7 171.688 62.34L172.188 63.36C171.908 63.6133 171.568 63.8 171.168 63.92C170.781 64.04 170.381 64.1 169.968 64.1ZM165.008 54.68V53.5H171.508V54.68H165.008ZM174.773 64V53.5H176.193V64H174.773ZM175.493 51.18C175.2 51.18 174.953 51.08 174.753 50.88C174.553 50.68 174.453 50.44 174.453 50.16C174.453 49.88 174.553 49.6467 174.753 49.46C174.953 49.26 175.2 49.16 175.493 49.16C175.786 49.16 176.033 49.2533 176.233 49.44C176.433 49.6267 176.533 49.86 176.533 50.14C176.533 50.4333 176.433 50.68 176.233 50.88C176.046 51.08 175.8 51.18 175.493 51.18ZM185.564 64.1C184.657 64.1 183.837 63.8933 183.104 63.48C182.371 63.0533 181.784 62.4467 181.344 61.66C180.917 60.86 180.704 59.8867 180.704 58.74C180.704 57.5933 180.917 56.6267 181.344 55.84C181.771 55.04 182.351 54.4333 183.084 54.02C183.817 53.6067 184.644 53.4 185.564 53.4C186.564 53.4 187.457 53.6267 188.244 54.08C189.044 54.52 189.671 55.1467 190.124 55.96C190.577 56.76 190.804 57.6867 190.804 58.74C190.804 59.8067 190.577 60.74 190.124 61.54C189.671 62.34 189.044 62.9667 188.244 63.42C187.457 63.8733 186.564 64.1 185.564 64.1ZM180.144 67.88V53.5H181.504V56.66L181.364 58.76L181.564 60.88V67.88H180.144ZM185.464 62.84C186.211 62.84 186.877 62.6733 187.464 62.34C188.051 61.9933 188.517 61.5133 188.864 60.9C189.211 60.2733 189.384 59.5533 189.384 58.74C189.384 57.9267 189.211 57.2133 188.864 56.6C188.517 55.9867 188.051 55.5067 187.464 55.16C186.877 54.8133 186.211 54.64 185.464 54.64C184.717 54.64 184.044 54.8133 183.444 55.16C182.857 55.5067 182.391 55.9867 182.044 56.6C181.711 57.2133 181.544 57.9267 181.544 58.74C181.544 59.5533 181.711 60.2733 182.044 60.9C182.391 61.5133 182.857 61.9933 183.444 62.34C184.044 62.6733 184.717 62.84 185.464 62.84ZM193.699 64V49.16H195.119V64H193.699ZM203.35 64.1C202.337 64.1 201.423 63.8733 200.61 63.42C199.81 62.9533 199.177 62.32 198.71 61.52C198.243 60.7067 198.01 59.78 198.01 58.74C198.01 57.6867 198.243 56.76 198.71 55.96C199.177 55.16 199.81 54.5333 200.61 54.08C201.41 53.6267 202.323 53.4 203.35 53.4C204.39 53.4 205.31 53.6267 206.11 54.08C206.923 54.5333 207.557 55.16 208.01 55.96C208.477 56.76 208.71 57.6867 208.71 58.74C208.71 59.78 208.477 60.7067 208.01 61.52C207.557 62.32 206.923 62.9533 206.11 63.42C205.297 63.8733 204.377 64.1 203.35 64.1ZM203.35 62.84C204.11 62.84 204.783 62.6733 205.37 62.34C205.957 61.9933 206.417 61.5133 206.75 60.9C207.097 60.2733 207.27 59.5533 207.27 58.74C207.27 57.9133 207.097 57.1933 206.75 56.58C206.417 55.9667 205.957 55.4933 205.37 55.16C204.783 54.8133 204.117 54.64 203.37 54.64C202.623 54.64 201.957 54.8133 201.37 55.16C200.783 55.4933 200.317 55.9667 199.97 56.58C199.623 57.1933 199.45 57.9133 199.45 58.74C199.45 59.5533 199.623 60.2733 199.97 60.9C200.317 61.5133 200.783 61.9933 201.37 62.34C201.957 62.6733 202.617 62.84 203.35 62.84ZM214.429 64.1C213.562 64.1 212.742 63.98 211.969 63.74C211.196 63.4867 210.589 63.1733 210.149 62.8L210.789 61.68C211.216 62 211.762 62.28 212.429 62.52C213.096 62.7467 213.796 62.86 214.529 62.86C215.529 62.86 216.249 62.7067 216.689 62.4C217.129 62.08 217.349 61.66 217.349 61.14C217.349 60.7533 217.222 60.4533 216.969 60.24C216.729 60.0133 216.409 59.8467 216.009 59.74C215.609 59.62 215.162 59.52 214.669 59.44C214.176 59.36 213.682 59.2667 213.189 59.16C212.709 59.0533 212.269 58.9 211.869 58.7C211.469 58.4867 211.142 58.2 210.889 57.84C210.649 57.48 210.529 57 210.529 56.4C210.529 55.8267 210.689 55.3133 211.009 54.86C211.329 54.4067 211.796 54.0533 212.409 53.8C213.036 53.5333 213.796 53.4 214.689 53.4C215.369 53.4 216.049 53.4933 216.729 53.68C217.409 53.8533 217.969 54.0867 218.409 54.38L217.789 55.52C217.322 55.2 216.822 54.9733 216.289 54.84C215.756 54.6933 215.222 54.62 214.689 54.62C213.742 54.62 213.042 54.7867 212.589 55.12C212.149 55.44 211.929 55.8533 211.929 56.36C211.929 56.76 212.049 57.0733 212.289 57.3C212.542 57.5267 212.869 57.7067 213.269 57.84C213.682 57.96 214.129 58.06 214.609 58.14C215.102 58.22 215.589 58.32 216.069 58.44C216.562 58.5467 217.009 58.7 217.409 58.9C217.822 59.0867 218.149 59.36 218.389 59.72C218.642 60.0667 218.769 60.5267 218.769 61.1C218.769 61.7133 218.596 62.2467 218.249 62.7C217.916 63.14 217.422 63.4867 216.769 63.74C216.129 63.98 215.349 64.1 214.429 64.1ZM230.789 64.1C229.789 64.1 228.889 63.8733 228.089 63.42C227.302 62.9667 226.682 62.34 226.229 61.54C225.776 60.7267 225.549 59.7933 225.549 58.74C225.549 57.6733 225.776 56.74 226.229 55.94C226.682 55.14 227.302 54.52 228.089 54.08C228.889 53.6267 229.789 53.4 230.789 53.4C231.709 53.4 232.529 53.6067 233.249 54.02C233.982 54.4333 234.562 55.04 234.989 55.84C235.429 56.6267 235.649 57.5933 235.649 58.74C235.649 59.8733 235.436 60.84 235.009 61.64C234.582 62.44 234.002 63.0533 233.269 63.48C232.549 63.8933 231.722 64.1 230.789 64.1ZM230.889 62.84C231.636 62.84 232.302 62.6733 232.889 62.34C233.489 61.9933 233.956 61.5133 234.289 60.9C234.636 60.2733 234.809 59.5533 234.809 58.74C234.809 57.9133 234.636 57.1933 234.289 56.58C233.956 55.9667 233.489 55.4933 232.889 55.16C232.302 54.8133 231.636 54.64 230.889 54.64C230.156 54.64 229.496 54.8133 228.909 55.16C228.322 55.4933 227.856 55.9667 227.509 56.58C227.162 57.1933 226.989 57.9133 226.989 58.74C226.989 59.5533 227.162 60.2733 227.509 60.9C227.856 61.5133 228.322 61.9933 228.909 62.34C229.496 62.6733 230.156 62.84 230.889 62.84ZM234.849 64V60.84L234.989 58.72L234.789 56.6V49.16H236.209V64H234.849ZM244.624 64.1C243.53 64.1 242.57 63.8733 241.744 63.42C240.917 62.9533 240.27 62.32 239.804 61.52C239.337 60.7067 239.104 59.78 239.104 58.74C239.104 57.7 239.324 56.78 239.764 55.98C240.217 55.18 240.83 54.5533 241.604 54.1C242.39 53.6333 243.27 53.4 244.244 53.4C245.23 53.4 246.104 53.6267 246.864 54.08C247.637 54.52 248.244 55.1467 248.684 55.96C249.124 56.76 249.344 57.6867 249.344 58.74C249.344 58.8067 249.337 58.88 249.324 58.96C249.324 59.0267 249.324 59.1 249.324 59.18H240.184V58.12H248.564L248.004 58.54C248.004 57.78 247.837 57.1067 247.504 56.52C247.184 55.92 246.744 55.4533 246.184 55.12C245.624 54.7867 244.977 54.62 244.244 54.62C243.524 54.62 242.877 54.7867 242.304 55.12C241.73 55.4533 241.284 55.92 240.964 56.52C240.644 57.12 240.484 57.8067 240.484 58.58V58.8C240.484 59.6 240.657 60.3067 241.004 60.92C241.364 61.52 241.857 61.9933 242.484 62.34C243.124 62.6733 243.85 62.84 244.664 62.84C245.304 62.84 245.897 62.7267 246.444 62.5C247.004 62.2733 247.484 61.9267 247.884 61.46L248.684 62.38C248.217 62.94 247.63 63.3667 246.924 63.66C246.23 63.9533 245.464 64.1 244.624 64.1ZM256.288 60.32V59.28L263.708 50H265.308L257.948 59.28L257.168 59.04H268.428V60.32H256.288ZM264.188 64V60.32L264.228 59.04V55.8H265.628V64H264.188ZM280.205 64.1C279.192 64.1 278.279 63.8733 277.465 63.42C276.665 62.9533 276.032 62.32 275.565 61.52C275.099 60.7067 274.865 59.78 274.865 58.74C274.865 57.6867 275.099 56.76 275.565 55.96C276.032 55.16 276.665 54.5333 277.465 54.08C278.265 53.6267 279.179 53.4 280.205 53.4C281.245 53.4 282.165 53.6267 282.965 54.08C283.779 54.5333 284.412 55.16 284.865 55.96C285.332 56.76 285.565 57.6867 285.565 58.74C285.565 59.78 285.332 60.7067 284.865 61.52C284.412 62.32 283.779 62.9533 282.965 63.42C282.152 63.8733 281.232 64.1 280.205 64.1ZM280.205 62.84C280.965 62.84 281.639 62.6733 282.225 62.34C282.812 61.9933 283.272 61.5133 283.605 60.9C283.952 60.2733 284.125 59.5533 284.125 58.74C284.125 57.9133 283.952 57.1933 283.605 56.58C283.272 55.9667 282.812 55.4933 282.225 55.16C281.639 54.8133 280.972 54.64 280.225 54.64C279.479 54.64 278.812 54.8133 278.225 55.16C277.639 55.4933 277.172 55.9667 276.825 56.58C276.479 57.1933 276.305 57.9133 276.305 58.74C276.305 59.5533 276.479 60.2733 276.825 60.9C277.172 61.5133 277.639 61.9933 278.225 62.34C278.812 62.6733 279.472 62.84 280.205 62.84ZM292.804 64.1C291.911 64.1 291.131 63.9333 290.464 63.6C289.798 63.2667 289.278 62.7667 288.904 62.1C288.544 61.4333 288.364 60.6 288.364 59.6V53.5H289.784V59.44C289.784 60.56 290.058 61.4067 290.604 61.98C291.164 62.54 291.944 62.82 292.944 62.82C293.678 62.82 294.311 62.6733 294.844 62.38C295.391 62.0733 295.804 61.6333 296.084 61.06C296.378 60.4867 296.524 59.8 296.524 59V53.5H297.944V64H296.584V61.12L296.804 61.64C296.471 62.4133 295.951 63.02 295.244 63.46C294.551 63.8867 293.738 64.1 292.804 64.1ZM311.516 64.12C310.396 64.12 309.43 63.96 308.616 63.64C307.816 63.32 307.196 62.86 306.756 62.26C306.33 61.6467 306.116 60.9267 306.116 60.1C306.116 59.3 306.323 58.62 306.736 58.06C307.163 57.4867 307.776 57.0467 308.576 56.74C309.39 56.4333 310.37 56.28 311.516 56.28C312.65 56.28 313.623 56.4333 314.436 56.74C315.25 57.0467 315.87 57.4867 316.296 58.06C316.736 58.62 316.956 59.3 316.956 60.1C316.956 60.9267 316.736 61.6467 316.296 62.26C315.856 62.86 315.23 63.32 314.416 63.64C313.603 63.96 312.636 64.12 311.516 64.12ZM311.516 62.9C312.756 62.9 313.723 62.6467 314.416 62.14C315.123 61.6333 315.476 60.9467 315.476 60.08C315.476 59.2133 315.123 58.5333 314.416 58.04C313.723 57.5333 312.756 57.28 311.516 57.28C310.276 57.28 309.31 57.5333 308.616 58.04C307.923 58.5333 307.576 59.2133 307.576 60.08C307.576 60.9467 307.923 61.6333 308.616 62.14C309.31 62.6467 310.276 62.9 311.516 62.9ZM311.516 57.1C310.476 57.1 309.59 56.96 308.856 56.68C308.136 56.4 307.583 56 307.196 55.48C306.81 54.9467 306.616 54.3133 306.616 53.58C306.616 52.8067 306.816 52.1467 307.216 51.6C307.63 51.04 308.203 50.6133 308.936 50.32C309.67 50.0267 310.53 49.88 311.516 49.88C312.503 49.88 313.363 50.0267 314.096 50.32C314.843 50.6133 315.423 51.04 315.836 51.6C316.25 52.1467 316.456 52.8067 316.456 53.58C316.456 54.3133 316.263 54.9467 315.876 55.48C315.49 56 314.923 56.4 314.176 56.68C313.443 56.96 312.556 57.1 311.516 57.1ZM311.516 56.14C312.61 56.14 313.463 55.9133 314.076 55.46C314.69 55.0067 314.996 54.4 314.996 53.64C314.996 52.84 314.676 52.22 314.036 51.78C313.41 51.3267 312.57 51.1 311.516 51.1C310.463 51.1 309.623 51.3267 308.996 51.78C308.37 52.22 308.056 52.8333 308.056 53.62C308.056 54.3933 308.356 55.0067 308.956 55.46C309.57 55.9133 310.423 56.14 311.516 56.14ZM330.545 64.1C329.638 64.1 328.818 63.8933 328.085 63.48C327.351 63.0533 326.765 62.4467 326.325 61.66C325.898 60.86 325.685 59.8867 325.685 58.74C325.685 57.5933 325.898 56.6267 326.325 55.84C326.751 55.04 327.331 54.4333 328.065 54.02C328.798 53.6067 329.625 53.4 330.545 53.4C331.545 53.4 332.438 53.6267 333.225 54.08C334.025 54.52 334.651 55.1467 335.105 55.96C335.558 56.76 335.785 57.6867 335.785 58.74C335.785 59.8067 335.558 60.74 335.105 61.54C334.651 62.34 334.025 62.9667 333.225 63.42C332.438 63.8733 331.545 64.1 330.545 64.1ZM325.125 67.88V53.5H326.485V56.66L326.345 58.76L326.545 60.88V67.88H325.125ZM330.445 62.84C331.191 62.84 331.858 62.6733 332.445 62.34C333.031 61.9933 333.498 61.5133 333.845 60.9C334.191 60.2733 334.365 59.5533 334.365 58.74C334.365 57.9267 334.191 57.2133 333.845 56.6C333.498 55.9867 333.031 55.5067 332.445 55.16C331.858 54.8133 331.191 54.64 330.445 54.64C329.698 54.64 329.025 54.8133 328.425 55.16C327.838 55.5067 327.371 55.9867 327.025 56.6C326.691 57.2133 326.525 57.9267 326.525 58.74C326.525 59.5533 326.691 60.2733 327.025 60.9C327.371 61.5133 327.838 61.9933 328.425 62.34C329.025 62.6733 329.698 62.84 330.445 62.84ZM345.201 64V61.68L345.141 61.3V57.42C345.141 56.5267 344.887 55.84 344.381 55.36C343.887 54.88 343.147 54.64 342.161 54.64C341.481 54.64 340.834 54.7533 340.221 54.98C339.607 55.2067 339.087 55.5067 338.661 55.88L338.021 54.82C338.554 54.3667 339.194 54.02 339.941 53.78C340.687 53.5267 341.474 53.4 342.301 53.4C343.661 53.4 344.707 53.74 345.441 54.42C346.187 55.0867 346.561 56.1067 346.561 57.48V64H345.201ZM341.581 64.1C340.794 64.1 340.107 63.9733 339.521 63.72C338.947 63.4533 338.507 63.0933 338.201 62.64C337.894 62.1733 337.741 61.64 337.741 61.04C337.741 60.4933 337.867 60 338.121 59.56C338.387 59.1067 338.814 58.7467 339.401 58.48C340.001 58.2 340.801 58.06 341.801 58.06H345.421V59.12H341.841C340.827 59.12 340.121 59.3 339.721 59.66C339.334 60.02 339.141 60.4667 339.141 61C339.141 61.6 339.374 62.08 339.841 62.44C340.307 62.8 340.961 62.98 341.801 62.98C342.601 62.98 343.287 62.8 343.861 62.44C344.447 62.0667 344.874 61.5333 345.141 60.84L345.461 61.82C345.194 62.5133 344.727 63.0667 344.061 63.48C343.407 63.8933 342.581 64.1 341.581 64.1ZM350.418 64V53.5H351.778V56.36L351.638 55.86C351.931 55.06 352.424 54.4533 353.118 54.04C353.811 53.6133 354.671 53.4 355.698 53.4V54.78C355.644 54.78 355.591 54.78 355.538 54.78C355.484 54.7667 355.431 54.76 355.378 54.76C354.271 54.76 353.404 55.1 352.778 55.78C352.151 56.4467 351.838 57.4 351.838 58.64V64H350.418ZM364.087 64V61.68L364.027 61.3V57.42C364.027 56.5267 363.774 55.84 363.267 55.36C362.774 54.88 362.034 54.64 361.047 54.64C360.367 54.64 359.721 54.7533 359.107 54.98C358.494 55.2067 357.974 55.5067 357.547 55.88L356.907 54.82C357.441 54.3667 358.081 54.02 358.827 53.78C359.574 53.5267 360.361 53.4 361.187 53.4C362.547 53.4 363.594 53.74 364.327 54.42C365.074 55.0867 365.447 56.1067 365.447 57.48V64H364.087ZM360.467 64.1C359.681 64.1 358.994 63.9733 358.407 63.72C357.834 63.4533 357.394 63.0933 357.087 62.64C356.781 62.1733 356.627 61.64 356.627 61.04C356.627 60.4933 356.754 60 357.007 59.56C357.274 59.1067 357.701 58.7467 358.287 58.48C358.887 58.2 359.687 58.06 360.687 58.06H364.307V59.12H360.727C359.714 59.12 359.007 59.3 358.607 59.66C358.221 60.02 358.027 60.4667 358.027 61C358.027 61.6 358.261 62.08 358.727 62.44C359.194 62.8 359.847 62.98 360.687 62.98C361.487 62.98 362.174 62.8 362.747 62.44C363.334 62.0667 363.761 61.5333 364.027 60.84L364.347 61.82C364.081 62.5133 363.614 63.0667 362.947 63.48C362.294 63.8933 361.467 64.1 360.467 64.1ZM377.859 64.1C376.872 64.1 376.112 63.8333 375.579 63.3C375.045 62.7667 374.779 62.0133 374.779 61.04V51.18H376.199V60.96C376.199 61.5733 376.352 62.0467 376.659 62.38C376.979 62.7133 377.432 62.88 378.019 62.88C378.645 62.88 379.165 62.7 379.579 62.34L380.079 63.36C379.799 63.6133 379.459 63.8 379.059 63.92C378.672 64.04 378.272 64.1 377.859 64.1ZM372.899 54.68V53.5H379.399V54.68H372.899ZM382.664 64V53.5H384.084V64H382.664ZM383.384 51.18C383.09 51.18 382.844 51.08 382.644 50.88C382.444 50.68 382.344 50.44 382.344 50.16C382.344 49.88 382.444 49.6467 382.644 49.46C382.844 49.26 383.09 49.16 383.384 49.16C383.677 49.16 383.924 49.2533 384.124 49.44C384.324 49.6267 384.424 49.86 384.424 50.14C384.424 50.4333 384.324 50.68 384.124 50.88C383.937 51.08 383.69 51.18 383.384 51.18ZM393.455 64.1C392.548 64.1 391.728 63.8933 390.995 63.48C390.261 63.0533 389.675 62.4467 389.235 61.66C388.808 60.86 388.595 59.8867 388.595 58.74C388.595 57.5933 388.808 56.6267 389.235 55.84C389.661 55.04 390.241 54.4333 390.975 54.02C391.708 53.6067 392.535 53.4 393.455 53.4C394.455 53.4 395.348 53.6267 396.135 54.08C396.935 54.52 397.561 55.1467 398.015 55.96C398.468 56.76 398.695 57.6867 398.695 58.74C398.695 59.8067 398.468 60.74 398.015 61.54C397.561 62.34 396.935 62.9667 396.135 63.42C395.348 63.8733 394.455 64.1 393.455 64.1ZM388.035 67.88V53.5H389.395V56.66L389.255 58.76L389.455 60.88V67.88H388.035ZM393.355 62.84C394.101 62.84 394.768 62.6733 395.355 62.34C395.941 61.9933 396.408 61.5133 396.755 60.9C397.101 60.2733 397.275 59.5533 397.275 58.74C397.275 57.9267 397.101 57.2133 396.755 56.6C396.408 55.9867 395.941 55.5067 395.355 55.16C394.768 54.8133 394.101 54.64 393.355 54.64C392.608 54.64 391.935 54.8133 391.335 55.16C390.748 55.5067 390.281 55.9867 389.935 56.6C389.601 57.2133 389.435 57.9267 389.435 58.74C389.435 59.5533 389.601 60.2733 389.935 60.9C390.281 61.5133 390.748 61.9933 391.335 62.34C391.935 62.6733 392.608 62.84 393.355 62.84ZM405.869 64.1C404.856 64.1 403.943 63.8733 403.129 63.42C402.329 62.9533 401.696 62.32 401.229 61.52C400.763 60.7067 400.529 59.78 400.529 58.74C400.529 57.6867 400.763 56.76 401.229 55.96C401.696 55.16 402.329 54.5333 403.129 54.08C403.929 53.6267 404.843 53.4 405.869 53.4C406.909 53.4 407.829 53.6267 408.629 54.08C409.443 54.5333 410.076 55.16 410.529 55.96C410.996 56.76 411.229 57.6867 411.229 58.74C411.229 59.78 410.996 60.7067 410.529 61.52C410.076 62.32 409.443 62.9533 408.629 63.42C407.816 63.8733 406.896 64.1 405.869 64.1ZM405.869 62.84C406.629 62.84 407.303 62.6733 407.889 62.34C408.476 61.9933 408.936 61.5133 409.269 60.9C409.616 60.2733 409.789 59.5533 409.789 58.74C409.789 57.9133 409.616 57.1933 409.269 56.58C408.936 55.9667 408.476 55.4933 407.889 55.16C407.303 54.8133 406.636 54.64 405.889 54.64C405.143 54.64 404.476 54.8133 403.889 55.16C403.303 55.4933 402.836 55.9667 402.489 56.58C402.143 57.1933 401.969 57.9133 401.969 58.74C401.969 59.5533 402.143 60.2733 402.489 60.9C402.836 61.5133 403.303 61.9933 403.889 62.34C404.476 62.6733 405.136 62.84 405.869 62.84ZM418.608 67.98C417.648 67.98 416.728 67.84 415.848 67.56C414.968 67.28 414.255 66.88 413.708 66.36L414.428 65.28C414.922 65.72 415.528 66.0667 416.248 66.32C416.982 66.5867 417.755 66.72 418.568 66.72C419.902 66.72 420.882 66.4067 421.508 65.78C422.135 65.1667 422.448 64.2067 422.448 62.9V60.28L422.648 58.48L422.508 56.68V53.5H423.868V62.72C423.868 64.5333 423.422 65.86 422.528 66.7C421.648 67.5533 420.342 67.98 418.608 67.98ZM418.348 63.6C417.348 63.6 416.448 63.3867 415.648 62.96C414.848 62.52 414.215 61.9133 413.748 61.14C413.295 60.3667 413.068 59.48 413.068 58.48C413.068 57.48 413.295 56.6 413.748 55.84C414.215 55.0667 414.848 54.4667 415.648 54.04C416.448 53.6133 417.348 53.4 418.348 53.4C419.282 53.4 420.122 53.5933 420.868 53.98C421.615 54.3667 422.208 54.94 422.648 55.7C423.088 56.46 423.308 57.3867 423.308 58.48C423.308 59.5733 423.088 60.5 422.648 61.26C422.208 62.02 421.615 62.6 420.868 63C420.122 63.4 419.282 63.6 418.348 63.6ZM418.488 62.34C419.262 62.34 419.948 62.18 420.548 61.86C421.148 61.5267 421.622 61.0733 421.968 60.5C422.315 59.9133 422.488 59.24 422.488 58.48C422.488 57.72 422.315 57.0533 421.968 56.48C421.622 55.9067 421.148 55.46 420.548 55.14C419.948 54.8067 419.262 54.64 418.488 54.64C417.728 54.64 417.042 54.8067 416.428 55.14C415.828 55.46 415.355 55.9067 415.008 56.48C414.675 57.0533 414.508 57.72 414.508 58.48C414.508 59.24 414.675 59.9133 415.008 60.5C415.355 61.0733 415.828 61.5267 416.428 61.86C417.042 62.18 417.728 62.34 418.488 62.34ZM427.82 64V53.5H429.18V56.36L429.04 55.86C429.333 55.06 429.827 54.4533 430.52 54.04C431.213 53.6133 432.073 53.4 433.1 53.4V54.78C433.047 54.78 432.993 54.78 432.94 54.78C432.887 54.7667 432.833 54.76 432.78 54.76C431.673 54.76 430.807 55.1 430.18 55.78C429.553 56.4467 429.24 57.4 429.24 58.64V64H427.82ZM441.49 64V61.68L441.43 61.3V57.42C441.43 56.5267 441.176 55.84 440.67 55.36C440.176 54.88 439.436 54.64 438.45 54.64C437.77 54.64 437.123 54.7533 436.51 54.98C435.896 55.2067 435.376 55.5067 434.95 55.88L434.31 54.82C434.843 54.3667 435.483 54.02 436.23 53.78C436.976 53.5267 437.763 53.4 438.59 53.4C439.95 53.4 440.996 53.74 441.73 54.42C442.476 55.0867 442.85 56.1067 442.85 57.48V64H441.49ZM437.87 64.1C437.083 64.1 436.396 63.9733 435.81 63.72C435.236 63.4533 434.796 63.0933 434.49 62.64C434.183 62.1733 434.03 61.64 434.03 61.04C434.03 60.4933 434.156 60 434.41 59.56C434.676 59.1067 435.103 58.7467 435.69 58.48C436.29 58.2 437.09 58.06 438.09 58.06H441.71V59.12H438.13C437.116 59.12 436.41 59.3 436.01 59.66C435.623 60.02 435.43 60.4667 435.43 61C435.43 61.6 435.663 62.08 436.13 62.44C436.596 62.8 437.25 62.98 438.09 62.98C438.89 62.98 439.576 62.8 440.15 62.44C440.736 62.0667 441.163 61.5333 441.43 60.84L441.75 61.82C441.483 62.5133 441.016 63.0667 440.35 63.48C439.696 63.8933 438.87 64.1 437.87 64.1ZM446.947 64V52.18C446.947 51.2467 447.22 50.4933 447.767 49.92C448.313 49.3467 449.1 49.06 450.127 49.06C450.527 49.06 450.913 49.1133 451.287 49.22C451.66 49.3267 451.973 49.4933 452.227 49.72L451.747 50.78C451.547 50.6067 451.313 50.48 451.047 50.4C450.78 50.3067 450.493 50.26 450.187 50.26C449.587 50.26 449.127 50.4267 448.807 50.76C448.487 51.0933 448.327 51.5867 448.327 52.24V53.84L448.367 54.5V64H446.947ZM445.067 54.68V53.5H451.567V54.68H445.067ZM453.487 64V53.5H454.907V64H453.487ZM454.207 51.18C453.913 51.18 453.667 51.08 453.467 50.88C453.267 50.68 453.167 50.44 453.167 50.16C453.167 49.88 453.267 49.6467 453.467 49.46C453.667 49.26 453.913 49.16 454.207 49.16C454.5 49.16 454.747 49.2533 454.947 49.44C455.147 49.6267 455.247 49.86 455.247 50.14C455.247 50.4333 455.147 50.68 454.947 50.88C454.76 51.08 454.513 51.18 454.207 51.18ZM465.474 64V61.68L465.414 61.3V57.42C465.414 56.5267 465.161 55.84 464.654 55.36C464.161 54.88 463.421 54.64 462.434 54.64C461.754 54.64 461.107 54.7533 460.494 54.98C459.881 55.2067 459.361 55.5067 458.934 55.88L458.294 54.82C458.827 54.3667 459.467 54.02 460.214 53.78C460.961 53.5267 461.747 53.4 462.574 53.4C463.934 53.4 464.981 53.74 465.714 54.42C466.461 55.0867 466.834 56.1067 466.834 57.48V64H465.474ZM461.854 64.1C461.067 64.1 460.381 63.9733 459.794 63.72C459.221 63.4533 458.781 63.0933 458.474 62.64C458.167 62.1733 458.014 61.64 458.014 61.04C458.014 60.4933 458.141 60 458.394 59.56C458.661 59.1067 459.087 58.7467 459.674 58.48C460.274 58.2 461.074 58.06 462.074 58.06H465.694V59.12H462.114C461.101 59.12 460.394 59.3 459.994 59.66C459.607 60.02 459.414 60.4667 459.414 61C459.414 61.6 459.647 62.08 460.114 62.44C460.581 62.8 461.234 62.98 462.074 62.98C462.874 62.98 463.561 62.8 464.134 62.44C464.721 62.0667 465.147 61.5333 465.414 60.84L465.734 61.82C465.467 62.5133 465.001 63.0667 464.334 63.48C463.681 63.8933 462.854 64.1 461.854 64.1ZM473.511 64.1C472.644 64.1 471.824 63.98 471.051 63.74C470.278 63.4867 469.671 63.1733 469.231 62.8L469.871 61.68C470.298 62 470.844 62.28 471.511 62.52C472.178 62.7467 472.878 62.86 473.611 62.86C474.611 62.86 475.331 62.7067 475.771 62.4C476.211 62.08 476.431 61.66 476.431 61.14C476.431 60.7533 476.304 60.4533 476.051 60.24C475.811 60.0133 475.491 59.8467 475.091 59.74C474.691 59.62 474.244 59.52 473.751 59.44C473.258 59.36 472.764 59.2667 472.271 59.16C471.791 59.0533 471.351 58.9 470.951 58.7C470.551 58.4867 470.224 58.2 469.971 57.84C469.731 57.48 469.611 57 469.611 56.4C469.611 55.8267 469.771 55.3133 470.091 54.86C470.411 54.4067 470.878 54.0533 471.491 53.8C472.118 53.5333 472.878 53.4 473.771 53.4C474.451 53.4 475.131 53.4933 475.811 53.68C476.491 53.8533 477.051 54.0867 477.491 54.38L476.871 55.52C476.404 55.2 475.904 54.9733 475.371 54.84C474.838 54.6933 474.304 54.62 473.771 54.62C472.824 54.62 472.124 54.7867 471.671 55.12C471.231 55.44 471.011 55.8533 471.011 56.36C471.011 56.76 471.131 57.0733 471.371 57.3C471.624 57.5267 471.951 57.7067 472.351 57.84C472.764 57.96 473.211 58.06 473.691 58.14C474.184 58.22 474.671 58.32 475.151 58.44C475.644 58.5467 476.091 58.7 476.491 58.9C476.904 59.0867 477.231 59.36 477.471 59.72C477.724 60.0667 477.851 60.5267 477.851 61.1C477.851 61.7133 477.678 62.2467 477.331 62.7C476.998 63.14 476.504 63.4867 475.851 63.74C475.211 63.98 474.431 64.1 473.511 64.1ZM479.597 66.92L480.477 63.22L480.637 64.08C480.33 64.08 480.07 63.98 479.857 63.78C479.657 63.58 479.557 63.32 479.557 63C479.557 62.68 479.657 62.42 479.857 62.22C480.07 62.02 480.323 61.92 480.617 61.92C480.923 61.92 481.17 62.0267 481.357 62.24C481.557 62.4533 481.657 62.7067 481.657 63C481.657 63.1067 481.65 63.2133 481.637 63.32C481.623 63.4267 481.597 63.5467 481.557 63.68C481.517 63.8133 481.463 63.9733 481.397 64.16L480.557 66.92H479.597ZM495.349 64.1C494.429 64.1 493.603 63.8933 492.869 63.48C492.136 63.0533 491.556 62.44 491.129 61.64C490.703 60.84 490.489 59.8733 490.489 58.74C490.489 57.5933 490.703 56.6267 491.129 55.84C491.569 55.04 492.156 54.4333 492.889 54.02C493.623 53.6067 494.443 53.4 495.349 53.4C496.349 53.4 497.243 53.6267 498.029 54.08C498.829 54.52 499.456 55.14 499.909 55.94C500.363 56.74 500.589 57.6733 500.589 58.74C500.589 59.7933 500.363 60.7267 499.909 61.54C499.456 62.34 498.829 62.9667 498.029 63.42C497.243 63.8733 496.349 64.1 495.349 64.1ZM489.929 64V49.16H491.349V56.6L491.149 58.72L491.289 60.84V64H489.929ZM495.249 62.84C495.996 62.84 496.663 62.6733 497.249 62.34C497.836 61.9933 498.303 61.5133 498.649 60.9C498.996 60.2733 499.169 59.5533 499.169 58.74C499.169 57.9133 498.996 57.1933 498.649 56.58C498.303 55.9667 497.836 55.4933 497.249 55.16C496.663 54.8133 495.996 54.64 495.249 54.64C494.503 54.64 493.829 54.8133 493.229 55.16C492.643 55.4933 492.176 55.9667 491.829 56.58C491.496 57.1933 491.329 57.9133 491.329 58.74C491.329 59.5533 491.496 60.2733 491.829 60.9C492.176 61.5133 492.643 61.9933 493.229 62.34C493.829 62.6733 494.503 62.84 495.249 62.84ZM507.764 64.1C506.751 64.1 505.837 63.8733 505.024 63.42C504.224 62.9533 503.591 62.32 503.124 61.52C502.657 60.7067 502.424 59.78 502.424 58.74C502.424 57.6867 502.657 56.76 503.124 55.96C503.591 55.16 504.224 54.5333 505.024 54.08C505.824 53.6267 506.737 53.4 507.764 53.4C508.804 53.4 509.724 53.6267 510.524 54.08C511.337 54.5333 511.971 55.16 512.424 55.96C512.891 56.76 513.124 57.6867 513.124 58.74C513.124 59.78 512.891 60.7067 512.424 61.52C511.971 62.32 511.337 62.9533 510.524 63.42C509.711 63.8733 508.791 64.1 507.764 64.1ZM507.764 62.84C508.524 62.84 509.197 62.6733 509.784 62.34C510.371 61.9933 510.831 61.5133 511.164 60.9C511.511 60.2733 511.684 59.5533 511.684 58.74C511.684 57.9133 511.511 57.1933 511.164 56.58C510.831 55.9667 510.371 55.4933 509.784 55.16C509.197 54.8133 508.531 54.64 507.784 54.64C507.037 54.64 506.371 54.8133 505.784 55.16C505.197 55.4933 504.731 55.9667 504.384 56.58C504.037 57.1933 503.864 57.9133 503.864 58.74C503.864 59.5533 504.037 60.2733 504.384 60.9C504.731 61.5133 505.197 61.9933 505.784 62.34C506.371 62.6733 507.031 62.84 507.764 62.84ZM519.343 64.1C518.356 64.1 517.596 63.8333 517.063 63.3C516.53 62.7667 516.263 62.0133 516.263 61.04V51.18H517.683V60.96C517.683 61.5733 517.836 62.0467 518.143 62.38C518.463 62.7133 518.916 62.88 519.503 62.88C520.13 62.88 520.65 62.7 521.063 62.34L521.563 63.36C521.283 63.6133 520.943 63.8 520.543 63.92C520.156 64.04 519.756 64.1 519.343 64.1ZM514.383 54.68V53.5H520.883V54.68H514.383ZM528.057 64.1C527.044 64.1 526.13 63.8733 525.317 63.42C524.517 62.9533 523.884 62.32 523.417 61.52C522.95 60.7067 522.717 59.78 522.717 58.74C522.717 57.6867 522.95 56.76 523.417 55.96C523.884 55.16 524.517 54.5333 525.317 54.08C526.117 53.6267 527.03 53.4 528.057 53.4C529.097 53.4 530.017 53.6267 530.817 54.08C531.63 54.5333 532.264 55.16 532.717 55.96C533.184 56.76 533.417 57.6867 533.417 58.74C533.417 59.78 533.184 60.7067 532.717 61.52C532.264 62.32 531.63 62.9533 530.817 63.42C530.004 63.8733 529.084 64.1 528.057 64.1ZM528.057 62.84C528.817 62.84 529.49 62.6733 530.077 62.34C530.664 61.9933 531.124 61.5133 531.457 60.9C531.804 60.2733 531.977 59.5533 531.977 58.74C531.977 57.9133 531.804 57.1933 531.457 56.58C531.124 55.9667 530.664 55.4933 530.077 55.16C529.49 54.8133 528.824 54.64 528.077 54.64C527.33 54.64 526.664 54.8133 526.077 55.16C525.49 55.4933 525.024 55.9667 524.677 56.58C524.33 57.1933 524.157 57.9133 524.157 58.74C524.157 59.5533 524.33 60.2733 524.677 60.9C525.024 61.5133 525.49 61.9933 526.077 62.34C526.664 62.6733 527.324 62.84 528.057 62.84ZM529.417 51.74C529.11 51.74 528.837 51.6733 528.597 51.54C528.357 51.4067 528.137 51.2533 527.937 51.08C527.75 50.8933 527.564 50.7333 527.377 50.6C527.19 50.4533 526.997 50.38 526.797 50.38C526.49 50.38 526.244 50.4933 526.057 50.72C525.884 50.9467 525.784 51.26 525.757 51.66H524.897C524.924 50.9933 525.097 50.46 525.417 50.06C525.75 49.66 526.177 49.46 526.697 49.46C527.004 49.46 527.277 49.5333 527.517 49.68C527.77 49.8133 527.99 49.9733 528.177 50.16C528.377 50.3333 528.564 50.4867 528.737 50.62C528.924 50.7533 529.117 50.82 529.317 50.82C529.624 50.82 529.87 50.7133 530.057 50.5C530.244 50.2733 530.344 49.9667 530.357 49.58H531.217C531.204 50.22 531.03 50.74 530.697 51.14C530.364 51.54 529.937 51.74 529.417 51.74ZM540.776 64.1C539.683 64.1 538.723 63.8733 537.896 63.42C537.069 62.9533 536.423 62.32 535.956 61.52C535.489 60.7067 535.256 59.78 535.256 58.74C535.256 57.7 535.476 56.78 535.916 55.98C536.369 55.18 536.983 54.5533 537.756 54.1C538.543 53.6333 539.423 53.4 540.396 53.4C541.383 53.4 542.256 53.6267 543.016 54.08C543.789 54.52 544.396 55.1467 544.836 55.96C545.276 56.76 545.496 57.6867 545.496 58.74C545.496 58.8067 545.489 58.88 545.476 58.96C545.476 59.0267 545.476 59.1 545.476 59.18H536.336V58.12H544.716L544.156 58.54C544.156 57.78 543.989 57.1067 543.656 56.52C543.336 55.92 542.896 55.4533 542.336 55.12C541.776 54.7867 541.129 54.62 540.396 54.62C539.676 54.62 539.029 54.7867 538.456 55.12C537.883 55.4533 537.436 55.92 537.116 56.52C536.796 57.12 536.636 57.8067 536.636 58.58V58.8C536.636 59.6 536.809 60.3067 537.156 60.92C537.516 61.52 538.009 61.9933 538.636 62.34C539.276 62.6733 540.003 62.84 540.816 62.84C541.456 62.84 542.049 62.7267 542.596 62.5C543.156 62.2733 543.636 61.9267 544.036 61.46L544.836 62.38C544.369 62.94 543.783 63.3667 543.076 63.66C542.383 63.9533 541.616 64.1 540.776 64.1ZM551.206 64.1C550.34 64.1 549.52 63.98 548.746 63.74C547.973 63.4867 547.366 63.1733 546.926 62.8L547.566 61.68C547.993 62 548.54 62.28 549.206 62.52C549.873 62.7467 550.573 62.86 551.306 62.86C552.306 62.86 553.026 62.7067 553.466 62.4C553.906 62.08 554.126 61.66 554.126 61.14C554.126 60.7533 554 60.4533 553.746 60.24C553.506 60.0133 553.186 59.8467 552.786 59.74C552.386 59.62 551.94 59.52 551.446 59.44C550.953 59.36 550.46 59.2667 549.966 59.16C549.486 59.0533 549.046 58.9 548.646 58.7C548.246 58.4867 547.92 58.2 547.666 57.84C547.426 57.48 547.306 57 547.306 56.4C547.306 55.8267 547.466 55.3133 547.786 54.86C548.106 54.4067 548.573 54.0533 549.186 53.8C549.813 53.5333 550.573 53.4 551.466 53.4C552.146 53.4 552.826 53.4933 553.506 53.68C554.186 53.8533 554.746 54.0867 555.186 54.38L554.566 55.52C554.1 55.2 553.6 54.9733 553.066 54.84C552.533 54.6933 552 54.62 551.466 54.62C550.52 54.62 549.82 54.7867 549.366 55.12C548.926 55.44 548.706 55.8533 548.706 56.36C548.706 56.76 548.826 57.0733 549.066 57.3C549.32 57.5267 549.646 57.7067 550.046 57.84C550.46 57.96 550.906 58.06 551.386 58.14C551.88 58.22 552.366 58.32 552.846 58.44C553.34 58.5467 553.786 58.7 554.186 58.9C554.6 59.0867 554.926 59.36 555.166 59.72C555.42 60.0667 555.546 60.5267 555.546 61.1C555.546 61.7133 555.373 62.2467 555.026 62.7C554.693 63.14 554.2 63.4867 553.546 63.74C552.906 63.98 552.126 64.1 551.206 64.1ZM557.292 66.92L558.172 63.22L558.332 64.08C558.025 64.08 557.765 63.98 557.552 63.78C557.352 63.58 557.252 63.32 557.252 63C557.252 62.68 557.352 62.42 557.552 62.22C557.765 62.02 558.019 61.92 558.312 61.92C558.619 61.92 558.865 62.0267 559.052 62.24C559.252 62.4533 559.352 62.7067 559.352 63C559.352 63.1067 559.345 63.2133 559.332 63.32C559.319 63.4267 559.292 63.5467 559.252 63.68C559.212 63.8133 559.159 63.9733 559.092 64.16L558.252 66.92H557.292ZM572.085 64.1C570.991 64.1 570.031 63.8733 569.205 63.42C568.378 62.9533 567.731 62.32 567.265 61.52C566.798 60.7067 566.565 59.78 566.565 58.74C566.565 57.7 566.785 56.78 567.225 55.98C567.678 55.18 568.291 54.5533 569.065 54.1C569.851 53.6333 570.731 53.4 571.705 53.4C572.691 53.4 573.565 53.6267 574.325 54.08C575.098 54.52 575.705 55.1467 576.145 55.96C576.585 56.76 576.805 57.6867 576.805 58.74C576.805 58.8067 576.798 58.88 576.785 58.96C576.785 59.0267 576.785 59.1 576.785 59.18H567.645V58.12H576.025L575.465 58.54C575.465 57.78 575.298 57.1067 574.965 56.52C574.645 55.92 574.205 55.4533 573.645 55.12C573.085 54.7867 572.438 54.62 571.705 54.62C570.985 54.62 570.338 54.7867 569.765 55.12C569.191 55.4533 568.745 55.92 568.425 56.52C568.105 57.12 567.945 57.8067 567.945 58.58V58.8C567.945 59.6 568.118 60.3067 568.465 60.92C568.825 61.52 569.318 61.9933 569.945 62.34C570.585 62.6733 571.311 62.84 572.125 62.84C572.765 62.84 573.358 62.7267 573.905 62.5C574.465 62.2733 574.945 61.9267 575.345 61.46L576.145 62.38C575.678 62.94 575.091 63.3667 574.385 63.66C573.691 63.9533 572.925 64.1 572.085 64.1ZM582.515 64.1C581.648 64.1 580.828 63.98 580.055 63.74C579.282 63.4867 578.675 63.1733 578.235 62.8L578.875 61.68C579.302 62 579.848 62.28 580.515 62.52C581.182 62.7467 581.882 62.86 582.615 62.86C583.615 62.86 584.335 62.7067 584.775 62.4C585.215 62.08 585.435 61.66 585.435 61.14C585.435 60.7533 585.308 60.4533 585.055 60.24C584.815 60.0133 584.495 59.8467 584.095 59.74C583.695 59.62 583.248 59.52 582.755 59.44C582.262 59.36 581.768 59.2667 581.275 59.16C580.795 59.0533 580.355 58.9 579.955 58.7C579.555 58.4867 579.228 58.2 578.975 57.84C578.735 57.48 578.615 57 578.615 56.4C578.615 55.8267 578.775 55.3133 579.095 54.86C579.415 54.4067 579.882 54.0533 580.495 53.8C581.122 53.5333 581.882 53.4 582.775 53.4C583.455 53.4 584.135 53.4933 584.815 53.68C585.495 53.8533 586.055 54.0867 586.495 54.38L585.875 55.52C585.408 55.2 584.908 54.9733 584.375 54.84C583.842 54.6933 583.308 54.62 582.775 54.62C581.828 54.62 581.128 54.7867 580.675 55.12C580.235 55.44 580.015 55.8533 580.015 56.36C580.015 56.76 580.135 57.0733 580.375 57.3C580.628 57.5267 580.955 57.7067 581.355 57.84C581.768 57.96 582.215 58.06 582.695 58.14C583.188 58.22 583.675 58.32 584.155 58.44C584.648 58.5467 585.095 58.7 585.495 58.9C585.908 59.0867 586.235 59.36 586.475 59.72C586.728 60.0667 586.855 60.5267 586.855 61.1C586.855 61.7133 586.682 62.2467 586.335 62.7C586.002 63.14 585.508 63.4867 584.855 63.74C584.215 63.98 583.435 64.1 582.515 64.1ZM594.88 64.1C593.974 64.1 593.154 63.8933 592.42 63.48C591.687 63.0533 591.1 62.4467 590.66 61.66C590.234 60.86 590.02 59.8867 590.02 58.74C590.02 57.5933 590.234 56.6267 590.66 55.84C591.087 55.04 591.667 54.4333 592.4 54.02C593.134 53.6067 593.96 53.4 594.88 53.4C595.88 53.4 596.774 53.6267 597.56 54.08C598.36 54.52 598.987 55.1467 599.44 55.96C599.894 56.76 600.12 57.6867 600.12 58.74C600.12 59.8067 599.894 60.74 599.44 61.54C598.987 62.34 598.36 62.9667 597.56 63.42C596.774 63.8733 595.88 64.1 594.88 64.1ZM589.46 67.88V53.5H590.82V56.66L590.68 58.76L590.88 60.88V67.88H589.46ZM594.78 62.84C595.527 62.84 596.194 62.6733 596.78 62.34C597.367 61.9933 597.834 61.5133 598.18 60.9C598.527 60.2733 598.7 59.5533 598.7 58.74C598.7 57.9267 598.527 57.2133 598.18 56.6C597.834 55.9867 597.367 55.5067 596.78 55.16C596.194 54.8133 595.527 54.64 594.78 54.64C594.034 54.64 593.36 54.8133 592.76 55.16C592.174 55.5067 591.707 55.9867 591.36 56.6C591.027 57.2133 590.86 57.9267 590.86 58.74C590.86 59.5533 591.027 60.2733 591.36 60.9C591.707 61.5133 592.174 61.9933 592.76 62.34C593.36 62.6733 594.034 62.84 594.78 62.84ZM609.537 64V61.68L609.477 61.3V57.42C609.477 56.5267 609.223 55.84 608.717 55.36C608.223 54.88 607.483 54.64 606.497 54.64C605.817 54.64 605.17 54.7533 604.557 54.98C603.943 55.2067 603.423 55.5067 602.997 55.88L602.357 54.82C602.89 54.3667 603.53 54.02 604.277 53.78C605.023 53.5267 605.81 53.4 606.637 53.4C607.997 53.4 609.043 53.74 609.777 54.42C610.523 55.0867 610.897 56.1067 610.897 57.48V64H609.537ZM605.917 64.1C605.13 64.1 604.443 63.9733 603.857 63.72C603.283 63.4533 602.843 63.0933 602.537 62.64C602.23 62.1733 602.077 61.64 602.077 61.04C602.077 60.4933 602.203 60 602.457 59.56C602.723 59.1067 603.15 58.7467 603.737 58.48C604.337 58.2 605.137 58.06 606.137 58.06H609.757V59.12H606.177C605.163 59.12 604.457 59.3 604.057 59.66C603.67 60.02 603.477 60.4667 603.477 61C603.477 61.6 603.71 62.08 604.177 62.44C604.643 62.8 605.297 62.98 606.137 62.98C606.937 62.98 607.623 62.8 608.197 62.44C608.783 62.0667 609.21 61.5333 609.477 60.84L609.797 61.82C609.53 62.5133 609.063 63.0667 608.397 63.48C607.743 63.8933 606.917 64.1 605.917 64.1ZM619.113 64.1C618.073 64.1 617.14 63.8733 616.313 63.42C615.5 62.9533 614.86 62.32 614.393 61.52C613.927 60.7067 613.693 59.78 613.693 58.74C613.693 57.6867 613.927 56.76 614.393 55.96C614.86 55.16 615.5 54.5333 616.313 54.08C617.14 53.6267 618.073 53.4 619.113 53.4C620.007 53.4 620.813 53.5733 621.533 53.92C622.253 54.2667 622.82 54.7867 623.233 55.48L622.173 56.2C621.813 55.6667 621.367 55.2733 620.833 55.02C620.3 54.7667 619.72 54.64 619.093 54.64C618.347 54.64 617.673 54.8133 617.073 55.16C616.473 55.4933 616 55.9667 615.653 56.58C615.307 57.1933 615.133 57.9133 615.133 58.74C615.133 59.5667 615.307 60.2867 615.653 60.9C616 61.5133 616.473 61.9933 617.073 62.34C617.673 62.6733 618.347 62.84 619.093 62.84C619.72 62.84 620.3 62.7133 620.833 62.46C621.367 62.2067 621.813 61.82 622.173 61.3L623.233 62.02C622.82 62.7 622.253 63.22 621.533 63.58C620.813 63.9267 620.007 64.1 619.113 64.1ZM618.273 68.4C617.94 68.4 617.633 68.36 617.353 68.28C617.087 68.2 616.833 68.0867 616.593 67.94L616.933 67.18C617.133 67.3 617.34 67.3933 617.553 67.46C617.78 67.5267 618.013 67.56 618.253 67.56C618.653 67.56 618.96 67.4733 619.173 67.3C619.387 67.14 619.493 66.9133 619.493 66.62C619.493 66.3533 619.387 66.1333 619.173 65.96C618.973 65.7867 618.667 65.7 618.253 65.7H617.793L618.273 63.88H619.133L618.833 65.04C619.38 65.08 619.8 65.2467 620.093 65.54C620.387 65.8467 620.533 66.22 620.533 66.66C620.533 67.1933 620.32 67.6133 619.893 67.92C619.48 68.24 618.94 68.4 618.273 68.4ZM632.603 64V61.68L632.543 61.3V57.42C632.543 56.5267 632.29 55.84 631.783 55.36C631.29 54.88 630.55 54.64 629.563 54.64C628.883 54.64 628.236 54.7533 627.623 54.98C627.01 55.2067 626.49 55.5067 626.063 55.88L625.423 54.82C625.956 54.3667 626.596 54.02 627.343 53.78C628.09 53.5267 628.876 53.4 629.703 53.4C631.063 53.4 632.11 53.74 632.843 54.42C633.59 55.0867 633.963 56.1067 633.963 57.48V64H632.603ZM628.983 64.1C628.196 64.1 627.51 63.9733 626.923 63.72C626.35 63.4533 625.91 63.0933 625.603 62.64C625.296 62.1733 625.143 61.64 625.143 61.04C625.143 60.4933 625.27 60 625.523 59.56C625.79 59.1067 626.216 58.7467 626.803 58.48C627.403 58.2 628.203 58.06 629.203 58.06H632.823V59.12H629.243C628.23 59.12 627.523 59.3 627.123 59.66C626.736 60.02 626.543 60.4667 626.543 61C626.543 61.6 626.776 62.08 627.243 62.44C627.71 62.8 628.363 62.98 629.203 62.98C630.003 62.98 630.69 62.8 631.263 62.44C631.85 62.0667 632.276 61.5333 632.543 60.84L632.863 61.82C632.596 62.5133 632.13 63.0667 631.463 63.48C630.81 63.8933 629.983 64.1 628.983 64.1ZM650.94 53.4C651.793 53.4 652.533 53.5667 653.16 53.9C653.8 54.22 654.293 54.7133 654.64 55.38C655 56.0467 655.18 56.8867 655.18 57.9V64H653.76V58.04C653.76 56.9333 653.493 56.1 652.96 55.54C652.44 54.9667 651.7 54.68 650.74 54.68C650.02 54.68 649.393 54.8333 648.86 55.14C648.34 55.4333 647.933 55.8667 647.64 56.44C647.36 57 647.22 57.68 647.22 58.48V64H645.8V58.04C645.8 56.9333 645.533 56.1 645 55.54C644.467 54.9667 643.72 54.68 642.76 54.68C642.053 54.68 641.433 54.8333 640.9 55.14C640.367 55.4333 639.953 55.8667 639.66 56.44C639.38 57 639.24 57.68 639.24 58.48V64H637.82V53.5H639.18V56.34L638.96 55.84C639.28 55.08 639.793 54.4867 640.5 54.06C641.22 53.62 642.067 53.4 643.04 53.4C644.067 53.4 644.94 53.66 645.66 54.18C646.38 54.6867 646.847 55.4533 647.06 56.48L646.5 56.26C646.807 55.4067 647.347 54.72 648.12 54.2C648.907 53.6667 649.847 53.4 650.94 53.4ZM663.491 64.1C662.397 64.1 661.437 63.8733 660.611 63.42C659.784 62.9533 659.137 62.32 658.671 61.52C658.204 60.7067 657.971 59.78 657.971 58.74C657.971 57.7 658.191 56.78 658.631 55.98C659.084 55.18 659.697 54.5533 660.471 54.1C661.257 53.6333 662.137 53.4 663.111 53.4C664.097 53.4 664.971 53.6267 665.731 54.08C666.504 54.52 667.111 55.1467 667.551 55.96C667.991 56.76 668.211 57.6867 668.211 58.74C668.211 58.8067 668.204 58.88 668.191 58.96C668.191 59.0267 668.191 59.1 668.191 59.18H659.051V58.12H667.431L666.871 58.54C666.871 57.78 666.704 57.1067 666.371 56.52C666.051 55.92 665.611 55.4533 665.051 55.12C664.491 54.7867 663.844 54.62 663.111 54.62C662.391 54.62 661.744 54.7867 661.171 55.12C660.597 55.4533 660.151 55.92 659.831 56.52C659.511 57.12 659.351 57.8067 659.351 58.58V58.8C659.351 59.6 659.524 60.3067 659.871 60.92C660.231 61.52 660.724 61.9933 661.351 62.34C661.991 62.6733 662.717 62.84 663.531 62.84C664.171 62.84 664.764 62.7267 665.311 62.5C665.871 62.2733 666.351 61.9267 666.751 61.46L667.551 62.38C667.084 62.94 666.497 63.3667 665.791 63.66C665.097 63.9533 664.331 64.1 663.491 64.1ZM676.461 53.4C677.314 53.4 678.061 53.5667 678.701 53.9C679.354 54.22 679.861 54.7133 680.221 55.38C680.594 56.0467 680.781 56.8867 680.781 57.9V64H679.361V58.04C679.361 56.9333 679.081 56.1 678.521 55.54C677.974 54.9667 677.201 54.68 676.201 54.68C675.454 54.68 674.801 54.8333 674.241 55.14C673.694 55.4333 673.268 55.8667 672.961 56.44C672.668 57 672.521 57.68 672.521 58.48V64H671.101V53.5H672.461V56.38L672.241 55.84C672.574 55.08 673.108 54.4867 673.841 54.06C674.574 53.62 675.448 53.4 676.461 53.4ZM687.937 64.1C686.95 64.1 686.19 63.8333 685.657 63.3C685.123 62.7667 684.857 62.0133 684.857 61.04V51.18H686.277V60.96C686.277 61.5733 686.43 62.0467 686.737 62.38C687.057 62.7133 687.51 62.88 688.097 62.88C688.723 62.88 689.243 62.7 689.657 62.34L690.157 63.36C689.877 63.6133 689.537 63.8 689.137 63.92C688.75 64.04 688.35 64.1 687.937 64.1ZM682.977 54.68V53.5H689.477V54.68H682.977ZM696.651 64.1C695.637 64.1 694.724 63.8733 693.911 63.42C693.111 62.9533 692.477 62.32 692.011 61.52C691.544 60.7067 691.311 59.78 691.311 58.74C691.311 57.6867 691.544 56.76 692.011 55.96C692.477 55.16 693.111 54.5333 693.911 54.08C694.711 53.6267 695.624 53.4 696.651 53.4C697.691 53.4 698.611 53.6267 699.411 54.08C700.224 54.5333 700.857 55.16 701.311 55.96C701.777 56.76 702.011 57.6867 702.011 58.74C702.011 59.78 701.777 60.7067 701.311 61.52C700.857 62.32 700.224 62.9533 699.411 63.42C698.597 63.8733 697.677 64.1 696.651 64.1ZM696.651 62.84C697.411 62.84 698.084 62.6733 698.671 62.34C699.257 61.9933 699.717 61.5133 700.051 60.9C700.397 60.2733 700.571 59.5533 700.571 58.74C700.571 57.9133 700.397 57.1933 700.051 56.58C699.717 55.9667 699.257 55.4933 698.671 55.16C698.084 54.8133 697.417 54.64 696.671 54.64C695.924 54.64 695.257 54.8133 694.671 55.16C694.084 55.4933 693.617 55.9667 693.271 56.58C692.924 57.1933 692.751 57.9133 692.751 58.74C692.751 59.5533 692.924 60.2733 693.271 60.9C693.617 61.5133 694.084 61.9933 694.671 62.34C695.257 62.6733 695.917 62.84 696.651 62.84ZM707.73 64.1C706.863 64.1 706.043 63.98 705.27 63.74C704.496 63.4867 703.89 63.1733 703.45 62.8L704.09 61.68C704.516 62 705.063 62.28 705.73 62.52C706.396 62.7467 707.096 62.86 707.83 62.86C708.83 62.86 709.55 62.7067 709.99 62.4C710.43 62.08 710.65 61.66 710.65 61.14C710.65 60.7533 710.523 60.4533 710.27 60.24C710.03 60.0133 709.71 59.8467 709.31 59.74C708.91 59.62 708.463 59.52 707.97 59.44C707.476 59.36 706.983 59.2667 706.49 59.16C706.01 59.0533 705.57 58.9 705.17 58.7C704.77 58.4867 704.443 58.2 704.19 57.84C703.95 57.48 703.83 57 703.83 56.4C703.83 55.8267 703.99 55.3133 704.31 54.86C704.63 54.4067 705.096 54.0533 705.71 53.8C706.336 53.5333 707.096 53.4 707.99 53.4C708.67 53.4 709.35 53.4933 710.03 53.68C710.71 53.8533 711.27 54.0867 711.71 54.38L711.09 55.52C710.623 55.2 710.123 54.9733 709.59 54.84C709.056 54.6933 708.523 54.62 707.99 54.62C707.043 54.62 706.343 54.7867 705.89 55.12C705.45 55.44 705.23 55.8533 705.23 56.36C705.23 56.76 705.35 57.0733 705.59 57.3C705.843 57.5267 706.17 57.7067 706.57 57.84C706.983 57.96 707.43 58.06 707.91 58.14C708.403 58.22 708.89 58.32 709.37 58.44C709.863 58.5467 710.31 58.7 710.71 58.9C711.123 59.0867 711.45 59.36 711.69 59.72C711.943 60.0667 712.07 60.5267 712.07 61.1C712.07 61.7133 711.896 62.2467 711.55 62.7C711.216 63.14 710.723 63.4867 710.07 63.74C709.43 63.98 708.65 64.1 707.73 64.1ZM713.815 66.92L714.695 63.22L714.855 64.08C714.549 64.08 714.289 63.98 714.075 63.78C713.875 63.58 713.775 63.32 713.775 63C713.775 62.68 713.875 62.42 714.075 62.22C714.289 62.02 714.542 61.92 714.835 61.92C715.142 61.92 715.389 62.0267 715.575 62.24C715.775 62.4533 715.875 62.7067 715.875 63C715.875 63.1067 715.869 63.2133 715.855 63.32C715.842 63.4267 715.815 63.5467 715.775 63.68C715.735 63.8133 715.682 63.9733 715.615 64.16L714.775 66.92H713.815ZM728.608 64.1C727.515 64.1 726.555 63.8733 725.728 63.42C724.901 62.9533 724.255 62.32 723.788 61.52C723.321 60.7067 723.088 59.78 723.088 58.74C723.088 57.7 723.308 56.78 723.748 55.98C724.201 55.18 724.815 54.5533 725.588 54.1C726.375 53.6333 727.255 53.4 728.228 53.4C729.215 53.4 730.088 53.6267 730.848 54.08C731.621 54.52 732.228 55.1467 732.668 55.96C733.108 56.76 733.328 57.6867 733.328 58.74C733.328 58.8067 733.321 58.88 733.308 58.96C733.308 59.0267 733.308 59.1 733.308 59.18H724.168V58.12H732.548L731.988 58.54C731.988 57.78 731.821 57.1067 731.488 56.52C731.168 55.92 730.728 55.4533 730.168 55.12C729.608 54.7867 728.961 54.62 728.228 54.62C727.508 54.62 726.861 54.7867 726.288 55.12C725.715 55.4533 725.268 55.92 724.948 56.52C724.628 57.12 724.468 57.8067 724.468 58.58V58.8C724.468 59.6 724.641 60.3067 724.988 60.92C725.348 61.52 725.841 61.9933 726.468 62.34C727.108 62.6733 727.835 62.84 728.648 62.84C729.288 62.84 729.881 62.7267 730.428 62.5C730.988 62.2733 731.468 61.9267 731.868 61.46L732.668 62.38C732.201 62.94 731.615 63.3667 730.908 63.66C730.215 63.9533 729.448 64.1 728.608 64.1ZM739.538 64.1C738.552 64.1 737.792 63.8333 737.258 63.3C736.725 62.7667 736.458 62.0133 736.458 61.04V51.18H737.878V60.96C737.878 61.5733 738.032 62.0467 738.338 62.38C738.658 62.7133 739.112 62.88 739.698 62.88C740.325 62.88 740.845 62.7 741.258 62.34L741.758 63.36C741.478 63.6133 741.138 63.8 740.738 63.92C740.352 64.04 739.952 64.1 739.538 64.1ZM734.578 54.68V53.5H741.078V54.68H734.578ZM748.332 64.1C747.292 64.1 746.359 63.8733 745.532 63.42C744.719 62.9533 744.079 62.32 743.612 61.52C743.146 60.7067 742.912 59.78 742.912 58.74C742.912 57.6867 743.146 56.76 743.612 55.96C744.079 55.16 744.719 54.5333 745.532 54.08C746.359 53.6267 747.292 53.4 748.332 53.4C749.226 53.4 750.032 53.5733 750.752 53.92C751.472 54.2667 752.039 54.7867 752.452 55.48L751.392 56.2C751.032 55.6667 750.586 55.2733 750.052 55.02C749.519 54.7667 748.939 54.64 748.312 54.64C747.566 54.64 746.892 54.8133 746.292 55.16C745.692 55.4933 745.219 55.9667 744.872 56.58C744.526 57.1933 744.352 57.9133 744.352 58.74C744.352 59.5667 744.526 60.2867 744.872 60.9C745.219 61.5133 745.692 61.9933 746.292 62.34C746.892 62.6733 747.566 62.84 748.312 62.84C748.939 62.84 749.519 62.7133 750.052 62.46C750.586 62.2067 751.032 61.82 751.392 61.3L752.452 62.02C752.039 62.7 751.472 63.22 750.752 63.58C750.032 63.9267 749.226 64.1 748.332 64.1ZM755.772 64.1C755.479 64.1 755.226 63.9933 755.012 63.78C754.812 63.5667 754.712 63.3067 754.712 63C754.712 62.68 754.812 62.42 755.012 62.22C755.226 62.02 755.479 61.92 755.772 61.92C756.066 61.92 756.312 62.02 756.512 62.22C756.726 62.42 756.832 62.68 756.832 63C756.832 63.3067 756.726 63.5667 756.512 63.78C756.312 63.9933 756.066 64.1 755.772 64.1Z" fill="#505565"/>
<rect y="96" width="1280" height="1" fill="#E8EDFC"/>
<rect y="113" width="1280" height="4" fill="#E8EDFC"/>
<rect y="133" width="1280" height="8" fill="#E8EDFC"/>
<rect y="157" width="1280" height="12" fill="#E8EDFC"/>
<rect y="185" width="1280" height="16" fill="#E8EDFC"/>
<rect y="217" width="1280" height="20" fill="#E8EDFC"/>
<rect y="253" width="1280" height="24" fill="#E8EDFC"/>
<rect y="293" width="1280" height="28" fill="#E8EDFC"/>
<rect y="337" width="1280" height="32" fill="#E8EDFC"/>
<rect y="385" width="1280" height="36" fill="#E8EDFC"/>
<rect y="437" width="1280" height="40" fill="#E8EDFC"/>
<rect y="493" width="1280" height="48" fill="#E8EDFC"/>
<rect y="557" width="1280" height="56" fill="#E8EDFC"/>
<rect y="629" width="1280" height="64" fill="#E8EDFC"/>
<rect y="709" width="1280" height="80" fill="#E8EDFC"/>
<rect y="805" width="1280" height="96" fill="#E8EDFC"/>
<rect y="917" width="1280" height="112" fill="#E8EDFC"/>
<rect y="1045" width="1280" height="128" fill="#E8EDFC"/>
<rect y="1189" width="1280" height="256" fill="#E8EDFC"/>
</svg>
